<svg width="20" height="11" viewBox="0 0 20 11" fill="none" xmlns="http://www.w3.org/2000/svg">
<path d="M19.7558 4.91074L15.7742 0.929072C15.5358 0.690815 15.1775 0.619553 14.8661 0.748507C14.5548 0.87746 14.3517 1.18124 14.3517 1.51824V4.04157C14.3517 4.15663 14.2584 4.2499 14.1433 4.2499H1.25C0.559644 4.2499 0 4.80955 0 5.49991C0 6.19026 0.559644 6.74991 1.25 6.74991H14.1433C14.2584 6.74991 14.3517 6.84318 14.3517 6.95824V9.48157C14.3517 9.81857 14.5548 10.1224 14.8661 10.2513C15.1775 10.3803 15.5358 10.309 15.7742 10.0707L19.7558 6.08907C20.0812 5.76366 20.0812 5.23616 19.7558 4.91074Z" fill="white"/>
</svg>
