<svg width="75" height="20" viewBox="0 0 75 20" fill="none" xmlns="http://www.w3.org/2000/svg">
<path d="M18.5948 16.2426C16.0712 14.6487 14.3445 11.8595 14.3445 8.80468C14.3445 4.02316 18.1963 0.171387 22.9778 0.171387H43.0336V6.54672H41.5726V1.7652H22.9778C18.9932 1.7652 15.8055 4.95287 15.8055 8.93746C15.8055 11.1954 16.8681 13.1877 18.5948 14.5159V16.2426Z" fill="#B9875D"/>
<path d="M0 19.8287V13.4533H1.46103V18.2348H20.0558C24.0404 18.2348 27.2281 15.0471 27.2281 11.0625C27.2281 8.8046 26.1655 6.81233 24.4388 5.48413V3.75745C26.9624 5.35128 28.6891 8.14051 28.6891 11.1954C28.6891 15.9769 24.8373 19.8287 20.0558 19.8287H0Z" fill="#B9875D"/>
<path d="M50.4716 16.2426C47.948 14.6487 46.2214 11.8595 46.2214 8.80468C46.2214 4.02316 50.0731 0.171387 54.8547 0.171387H74.9104V6.54672H73.4494V1.7652H54.8547C50.8701 1.7652 47.6824 4.95287 47.6824 8.93746C47.6824 11.1954 48.745 13.1877 50.4716 14.5159V16.2426Z" fill="#B9875D"/>
<path d="M31.8767 19.8287V13.4533H33.3377V18.2348H51.9325C55.9171 18.2348 59.1048 15.0471 59.1048 11.0625C59.1048 8.8046 58.0422 6.81233 56.3155 5.48413V3.75745C58.8391 5.35128 60.5658 8.14051 60.5658 11.1954C60.5658 15.9769 56.714 19.8287 51.9325 19.8287H31.8767Z" fill="#B9875D"/>
</svg>
