<svg width="23" height="22" viewBox="0 0 23 22" fill="none" xmlns="http://www.w3.org/2000/svg">
<path fill-rule="evenodd" clip-rule="evenodd" d="M7.49829 0H15.7483C19.5447 0 22.6233 3.07862 22.6233 6.875V15.125C22.6233 18.9214 19.5447 22 15.7483 22H7.49829C3.70192 22 0.623291 18.9214 0.623291 15.125V6.875C0.623291 3.07862 3.70192 0 7.49829 0ZM15.7483 19.9375C18.402 19.9375 20.5608 17.7787 20.5608 15.125V6.875C20.5608 4.22125 18.402 2.0625 15.7483 2.0625H7.49829C4.84454 2.0625 2.68579 4.22125 2.68579 6.875V15.125C2.68579 17.7787 4.84454 19.9375 7.49829 19.9375H15.7483Z" fill="white"/>
<path fill-rule="evenodd" clip-rule="evenodd" d="M6.12329 11C6.12329 7.96263 8.58592 5.5 11.6233 5.5C14.6607 5.5 17.1233 7.96263 17.1233 11C17.1233 14.0374 14.6607 16.5 11.6233 16.5C8.58592 16.5 6.12329 14.0374 6.12329 11ZM8.18579 11C8.18579 12.8948 9.72854 14.4375 11.6233 14.4375C13.518 14.4375 15.0608 12.8948 15.0608 11C15.0608 9.10388 13.518 7.5625 11.6233 7.5625C9.72854 7.5625 8.18579 9.10388 8.18579 11Z" fill="white"/>
<path d="M17.5359 5.82024C17.9406 5.82024 18.2687 5.49212 18.2687 5.08737C18.2687 4.68261 17.9406 4.35449 17.5359 4.35449C17.1311 4.35449 16.803 4.68261 16.803 5.08737C16.803 5.49212 17.1311 5.82024 17.5359 5.82024Z" fill="white"/>
</svg>
