<svg width="23" height="18" viewBox="0 0 23 18" fill="none" xmlns="http://www.w3.org/2000/svg">
<path d="M22.6233 2.17863C21.8052 2.5375 20.9334 2.77538 20.0245 2.89088C20.9595 2.33263 21.6732 1.45537 22.0087 0.398C21.1369 0.91775 20.1744 1.28488 19.1487 1.48975C18.3209 0.608375 17.1412 0.0625 15.8542 0.0625C13.3572 0.0625 11.3469 2.08925 11.3469 4.57387C11.3469 4.93138 11.3772 5.27513 11.4514 5.60238C7.70179 5.4195 4.38392 3.62238 2.15504 0.88475C1.76592 1.55988 1.53767 2.33262 1.53767 3.1645C1.53767 4.7265 2.34204 6.11112 3.54104 6.91275C2.81642 6.899 2.10554 6.68863 1.50329 6.35725C1.50329 6.371 1.50329 6.38888 1.50329 6.40675C1.50329 8.5985 3.06667 10.419 5.11679 10.8384C4.74967 10.9388 4.34954 10.9869 3.93429 10.9869C3.64554 10.9869 3.35404 10.9704 3.08042 10.9099C3.66479 12.696 5.32304 14.0091 7.29479 14.0518C5.76029 15.2521 3.81192 15.9754 1.70267 15.9754C1.33279 15.9754 0.978041 15.9589 0.623291 15.9135C2.62117 17.2019 4.98892 17.9375 7.54229 17.9375C15.8418 17.9375 20.3793 11.0625 20.3793 5.10325C20.3793 4.90387 20.3724 4.71137 20.3628 4.52025C21.2579 3.885 22.01 3.09163 22.6233 2.17863Z" fill="white"/>
</svg>
