<svg width="24" height="24" viewBox="0 0 24 24" fill="none" xmlns="http://www.w3.org/2000/svg">
<g clip-path="url(#clip0_147_5593)">
<path d="M8.00003 19.6C7.11763 19.6 6.40002 20.3176 6.40002 21.2C6.40002 22.0824 7.11763 22.8 8.00003 22.8C8.88243 22.8 9.60003 22.0824 9.60003 21.2C9.60003 20.3176 8.88243 19.6 8.00003 19.6ZM8.00003 22C7.55883 22 7.20003 21.6412 7.20003 21.2C7.20003 20.7588 7.55883 20.4 8.00003 20.4C8.44123 20.4 8.80003 20.7588 8.80003 21.2C8.80003 21.6412 8.44123 22 8.00003 22Z" fill="white"/>
<path d="M6.80002 2.00001H8.40002C8.62082 2.00001 8.80002 1.82121 8.80002 1.60001C8.80002 1.37881 8.62082 1.20001 8.40002 1.20001H6.80002C6.57922 1.20001 6.40002 1.37881 6.40002 1.60001C6.40002 1.82121 6.57922 2.00001 6.80002 2.00001Z" fill="white"/>
<path d="M9.59995 2.00001H9.99996C10.2208 2.00001 10.4 1.82121 10.4 1.60001C10.4 1.37881 10.2208 1.20001 9.99996 1.20001H9.59995C9.37915 1.20001 9.19995 1.37881 9.19995 1.60001C9.19995 1.82121 9.37915 2.00001 9.59995 2.00001Z" fill="white"/>
<path d="M22.4 4.8H15.2V1.762C15.2 0.7908 14.4096 0 13.438 0H3.36197C2.39038 0 1.59998 0.7908 1.59998 1.762V22.2376C1.59998 23.2092 2.39038 24 3.36197 24H13.4376C14.4096 24 15.2 23.2092 15.2 22.238V13.2H22.4V4.8ZM3.36197 0.8H13.4376C13.9684 0.8 14.4 1.2316 14.4 1.762V2.4H2.39998V1.762C2.39998 1.2316 2.83158 0.8 3.36197 0.8ZM13.438 23.2H3.36197C2.83158 23.2 2.39998 22.7684 2.39998 22.238V19.2H14.4V22.238C14.4 22.7684 13.9684 23.2 13.438 23.2ZM14.4 18.4H2.39998V3.2H14.4V4.8H7.19997V13.2H8.79997V16L12.5332 13.2H14.4V18.4ZM21.6 12.4H15.2H12.2668L9.59997 14.4V12.4H7.99997V5.6H15.2H21.6V12.4Z" fill="white"/>
<path d="M9.99998 8.39998H14C14.2208 8.39998 14.4 8.22118 14.4 7.99998C14.4 7.77878 14.2208 7.59998 14 7.59998H9.99998C9.77918 7.59998 9.59998 7.77878 9.59998 7.99998C9.59998 8.22118 9.77918 8.39998 9.99998 8.39998Z" fill="white"/>
<path d="M9.59998 9.99998C9.59998 10.2212 9.77918 10.4 9.99998 10.4H19.6C19.8208 10.4 20 10.2212 20 9.99998C20 9.77878 19.8208 9.59998 19.6 9.59998H9.99998C9.77918 9.59998 9.59998 9.77878 9.59998 9.99998Z" fill="white"/>
</g>
<defs>
<clipPath id="clip0_147_5593">
<rect width="24" height="24" fill="white"/>
</clipPath>
</defs>
</svg>
