<svg width="24" height="24" viewBox="0 0 24 24" fill="none" xmlns="http://www.w3.org/2000/svg">
<g clip-path="url(#clip0_145_5583)">
<path d="M23.7936 10.9512L11.9998 0L0.20645 10.9512C0.0403226 11.1058 0.0304537 11.3661 0.185067 11.5327C0.338858 11.6988 0.599973 11.7082 0.7661 11.554L2.13089 10.2867V24H21.8687V10.2863L23.2335 11.5536C23.3125 11.6272 23.4132 11.6634 23.5136 11.6634C23.6242 11.6634 23.734 11.6194 23.8146 11.5323C23.9696 11.3661 23.9597 11.1058 23.7936 10.9512ZM21.0463 23.1776H2.9533V9.52269L11.9998 1.12218L21.0463 9.52269V23.1776Z" fill="white"/>
<path d="M5.42053 14.5423H11.1774V8.7854H5.42053V14.5423ZM6.24294 9.60781H10.355V13.7199H6.24294V9.60781Z" fill="white"/>
<path d="M18.5791 8.7854H12.8223V14.5423H18.5791V8.7854ZM17.7567 13.7199H13.6447V9.60781H17.7567V13.7199Z" fill="white"/>
<path d="M5.42053 21.944H11.1774V16.1871H5.42053V21.944ZM6.24294 17.0095H10.355V21.1215H6.24294V17.0095Z" fill="white"/>
<path d="M18.5791 16.1871H12.8223V21.944H18.5791V16.1871ZM17.7567 21.1215H13.6447V17.0095H17.7567V21.1215Z" fill="white"/>
</g>
<defs>
<clipPath id="clip0_145_5583">
<rect width="24" height="24" fill="white"/>
</clipPath>
</defs>
</svg>
