<svg width="24" height="24" viewBox="0 0 24 24" fill="none" xmlns="http://www.w3.org/2000/svg">
<g clip-path="url(#clip0_145_5555)">
<path d="M23.5862 2.48279H0.413793C0.185379 2.48279 0 2.66775 0 2.89658V21.1035C0 21.3323 0.185379 21.5173 0.413793 21.5173H23.5862C23.8146 21.5173 24 21.3323 24 21.1035V2.89658C24 2.66775 23.8146 2.48279 23.5862 2.48279ZM23.1724 20.6897H0.827586V3.31037H23.1724V20.6897Z" fill="white"/>
<path d="M6.62069 11.6434C7.89145 11.6434 8.92511 10.6097 8.92511 9.33937C8.92511 8.0682 7.89145 7.03455 6.62069 7.03455C5.34994 7.03455 4.31628 8.0682 4.31628 9.33896C4.31628 10.6097 5.34994 11.6434 6.62069 11.6434ZM6.62069 7.86213C7.43504 7.86213 8.09752 8.52503 8.09752 9.33896C8.09752 10.1529 7.43504 10.8158 6.62069 10.8158C5.80635 10.8158 5.14387 10.1533 5.14387 9.33937C5.14387 8.52544 5.80635 7.86213 6.62069 7.86213Z" fill="white"/>
<path d="M2.89656 19.0345C2.99338 19.0345 3.09104 19.0006 3.16966 18.9315L9.91987 12.9886L14.1828 17.2511C14.3446 17.4129 14.6061 17.4129 14.7679 17.2511C14.9297 17.0893 14.9297 16.8278 14.7679 16.666L12.7788 14.6769L16.5778 10.5166L21.2375 14.7882C21.4059 14.9425 21.6679 14.9309 21.8222 14.7625C21.9766 14.5941 21.9654 14.3322 21.7966 14.1778L16.831 9.62611C16.7499 9.55204 16.6419 9.51521 16.5331 9.5177C16.4235 9.52266 16.32 9.57108 16.2459 9.65218L12.1932 14.0909L10.2306 12.1283C10.0759 11.974 9.82842 11.9661 9.66456 12.1101L2.62304 18.31C2.45131 18.461 2.43476 18.7225 2.5858 18.8942C2.66773 18.9874 2.78194 19.0345 2.89656 19.0345Z" fill="white"/>
</g>
<defs>
<clipPath id="clip0_145_5555">
<rect width="24" height="24" fill="white"/>
</clipPath>
</defs>
</svg>
