<svg width="24" height="24" viewBox="0 0 24 24" fill="none" xmlns="http://www.w3.org/2000/svg">
<g clip-path="url(#clip0_145_5552)">
<path d="M22.5478 10.0389H17.7933C17.5521 10.0389 17.3571 10.2339 17.3571 10.4751C17.3571 10.7163 17.5521 10.9113 17.7933 10.9113H21.7639L23.0285 22.6895H0.989367L2.47385 10.9113H6.45139C6.69262 10.9113 6.88762 10.7163 6.88762 10.4751C6.88762 10.2339 6.69262 10.0389 6.45139 10.0389H1.70435L0 23.562H24L22.5478 10.0389Z" fill="white"/>
<path d="M11.6272 16.9989C11.5631 17.0369 11.4946 17.0705 11.4331 17.1102C11.3371 17.1721 11.2433 17.2371 11.1513 17.3043C10.9571 17.4469 10.9153 17.72 11.0575 17.9141C11.143 18.0306 11.2756 18.0921 11.4099 18.0921C11.4994 18.0921 11.5897 18.0646 11.6678 18.0079C11.7454 17.9508 11.8244 17.8958 11.9068 17.8426C12.0468 17.7519 12.1956 17.6668 12.3491 17.5892C12.5533 17.4858 12.6362 17.2441 12.5507 17.0356C12.5542 17.0321 12.5585 17.0295 12.5616 17.026C13.3507 16.1902 16.01 13.058 17.111 7.83988C17.3344 6.78158 17.3845 5.76604 17.2602 4.82161C16.8851 1.9534 15.1031 0.437073 12.107 0.437073C9.11189 0.437073 7.3299 1.9534 6.95387 4.82161C6.82998 5.76648 6.88015 6.78202 7.1035 7.83988C8.19363 13.0074 10.811 16.1274 11.6272 16.9989ZM7.81891 4.93546C8.13867 2.49607 9.54158 1.30997 12.1075 1.30997C14.6738 1.30997 16.0763 2.49607 16.3956 4.93546C16.5068 5.78175 16.4602 6.69914 16.2578 7.66059C15.268 12.3514 12.908 15.3277 12.1075 16.2307C11.3061 15.3269 8.94656 12.3492 7.9572 7.66059C7.75435 6.69914 7.70811 5.78218 7.81891 4.93546Z" fill="white"/>
<path d="M12.1075 8.69185C13.8746 8.69185 15.312 7.25448 15.312 5.48731C15.312 3.72015 13.8746 2.28278 12.1075 2.28278C10.3403 2.28278 8.90295 3.72015 8.90295 5.48731C8.90295 7.25448 10.3403 8.69185 12.1075 8.69185ZM12.1075 3.15567C13.393 3.15567 14.4396 4.20175 14.4396 5.48775C14.4396 6.77375 13.3935 7.81983 12.1075 7.81983C10.8215 7.81983 9.77541 6.77375 9.77541 5.48775C9.77541 4.20175 10.8219 3.15567 12.1075 3.15567Z" fill="white"/>
<path d="M13.7097 16.2146C13.4742 16.2643 13.3241 16.4964 13.3743 16.7324C13.4179 16.9374 13.5989 17.0775 13.8005 17.0775C13.8306 17.0775 13.8616 17.0744 13.8921 17.0679C14.1477 17.0138 14.4247 16.968 14.7148 16.9313C14.9539 16.9021 15.124 16.684 15.0939 16.4449C15.0642 16.2054 14.8483 16.0327 14.6075 16.0658C14.2921 16.1047 13.9898 16.1548 13.7097 16.2146Z" fill="white"/>
<path d="M15.9655 16.3917C15.9751 16.626 16.1688 16.8092 16.4009 16.8092C16.4074 16.8092 16.4135 16.8092 16.4201 16.8088L17.293 16.7726C17.5333 16.7617 17.72 16.5575 17.7087 16.3171C17.6978 16.0759 17.4736 15.8879 17.2533 15.901L16.3825 15.9372C16.1417 15.9472 15.955 16.1505 15.9655 16.3917Z" fill="white"/>
<path d="M9.78589 18.3988C9.56167 18.5681 9.33003 18.7308 9.09665 18.8817C8.89468 19.013 8.8371 19.283 8.9684 19.4855C9.05172 19.6141 9.19219 19.6839 9.33483 19.6839C9.41641 19.6839 9.49842 19.6613 9.57214 19.6137C9.8221 19.4514 10.0712 19.2769 10.3115 19.0955C10.5035 18.9502 10.5419 18.6767 10.397 18.4843C10.2518 18.2937 9.97914 18.2535 9.78589 18.3988Z" fill="white"/>
<path d="M19.5081 15.5223C19.3607 15.6257 19.1692 15.7007 18.921 15.7518C18.685 15.8002 18.5332 16.0314 18.582 16.2674C18.6248 16.4737 18.8062 16.6155 19.0091 16.6155C19.0383 16.6155 19.068 16.6124 19.0976 16.6063C19.4649 16.5304 19.7633 16.4092 20.012 16.2342L20.0704 16.1915C20.2624 16.0458 20.3003 15.7723 20.1551 15.5803C20.0094 15.3884 19.7363 15.3509 19.5439 15.4957L19.5081 15.5223Z" fill="white"/>
<path d="M3.86495 18.9332C3.9282 18.7007 3.79036 18.4612 3.55785 18.3984C3.32708 18.3334 3.08585 18.4721 3.02303 18.7055C2.96806 18.9079 2.93535 19.1146 2.92488 19.3184C2.9227 19.3685 2.92139 19.4191 2.92139 19.4723C2.92182 19.5578 2.92575 19.6433 2.93404 19.7284C2.95716 19.9531 3.14648 20.1201 3.36765 20.1201C3.38205 20.1201 3.39688 20.1193 3.41258 20.118C3.65207 20.0931 3.82656 19.8793 3.80257 19.6394C3.79646 19.5823 3.79428 19.5243 3.79385 19.4693C3.79385 19.4331 3.79515 19.3969 3.7969 19.3611C3.80388 19.2198 3.82656 19.0754 3.86495 18.9332Z" fill="white"/>
<path d="M19.4985 12.1315C19.1522 12.0852 18.7988 12.1136 18.4577 12.2104C18.2256 12.2754 18.0909 12.5167 18.1567 12.7483C18.2108 12.9407 18.3857 13.0663 18.5759 13.0663C18.6156 13.0663 18.6553 13.0611 18.6946 13.0497C18.9214 12.9861 19.1548 12.966 19.3816 12.9965C19.6268 13.0271 19.8405 12.8609 19.8724 12.6227C19.9047 12.3832 19.7372 12.1638 19.4985 12.1315Z" fill="white"/>
<path d="M20.3667 14.2926C20.2956 14.5225 20.4247 14.7672 20.6546 14.8379C20.6978 14.8514 20.7405 14.8575 20.7833 14.8575C20.97 14.8575 21.1423 14.7375 21.1999 14.5499C21.2431 14.4112 21.2697 14.2703 21.2797 14.1298C21.2819 14.0936 21.2832 14.057 21.2832 14.0208C21.2832 13.8166 21.2457 13.612 21.172 13.4136C21.0882 13.1871 20.8356 13.0729 20.6114 13.1562C20.385 13.2399 20.2703 13.4912 20.354 13.7167C20.3916 13.8179 20.4108 13.9205 20.4108 14.0204L20.4094 14.0714C20.4042 14.1438 20.3903 14.2162 20.3667 14.2926Z" fill="white"/>
<path d="M7.62571 19.7018C7.37008 19.8218 7.10965 19.933 6.85184 20.0329C6.62718 20.1193 6.51551 20.3718 6.60232 20.5969C6.66906 20.7697 6.83395 20.8761 7.00932 20.8761C7.06167 20.8761 7.11489 20.867 7.16636 20.8469C7.44337 20.74 7.72255 20.6205 7.99651 20.4922C8.21462 20.3902 8.30841 20.1302 8.2059 19.9121C8.10425 19.6935 7.84513 19.5988 7.62571 19.7018Z" fill="white"/>
<path d="M4.44998 17.8858C4.52021 17.8858 4.59175 17.8687 4.65849 17.8325C4.78413 17.764 4.91805 17.7213 5.0559 17.7065C5.11479 17.6995 5.17499 17.6995 5.233 17.7073C5.4786 17.7392 5.69104 17.5708 5.72245 17.3322C5.75386 17.0931 5.58591 16.8742 5.3473 16.8427C5.2173 16.8257 5.08512 16.8249 4.95862 16.8393C4.70822 16.8667 4.46655 16.9435 4.24059 17.0665C4.02902 17.1821 3.95093 17.4465 4.06653 17.658C4.14592 17.8037 4.29555 17.8858 4.44998 17.8858Z" fill="white"/>
<path d="M4.35919 21.3062C4.45341 21.3307 4.54938 21.349 4.64448 21.3603C4.75615 21.3739 4.86783 21.3808 4.97994 21.3808C5.11648 21.3808 5.25345 21.3712 5.38999 21.3538C5.62904 21.3237 5.79874 21.1056 5.7682 20.8665C5.73766 20.6275 5.52086 20.4591 5.28093 20.4883C5.1047 20.511 4.92672 20.5162 4.75048 20.4949C4.6929 20.4874 4.63532 20.4765 4.57861 20.4621C4.34523 20.3998 4.10748 20.5411 4.04641 20.7745C3.98665 21.0079 4.12624 21.246 4.35919 21.3062Z" fill="white"/>
</g>
<defs>
<clipPath id="clip0_145_5552">
<rect width="24" height="24" fill="white"/>
</clipPath>
</defs>
</svg>
