<svg width="24" height="24" viewBox="0 0 24 24" fill="none" xmlns="http://www.w3.org/2000/svg">
<path d="M5.69491 2.84746C5.69491 1.27769 4.41722 0 2.84746 0C1.27769 0 0 1.27769 0 2.84746V21.1525H0.00122034C0.00122034 21.1607 0 21.1688 0 21.1769C0 22.7337 1.26631 24 2.82305 24H24V2.84746H5.69491ZM0.813559 2.84746C0.813559 1.86264 1.51769 1.03973 2.44881 0.85383C2.46997 1.05885 2.63715 1.22034 2.84746 1.22034C3.05776 1.22034 3.22495 1.05885 3.2461 0.85383C4.17722 1.03973 4.88136 1.86264 4.88136 2.84746V19.1614C4.36434 18.6334 3.64353 18.3051 2.84746 18.3051C2.74861 18.3051 2.65139 18.3104 2.55498 18.3201C2.51186 18.3246 2.46956 18.3332 2.42685 18.3397C2.37478 18.3474 2.3223 18.3535 2.27105 18.3641C2.21492 18.3755 2.16081 18.3917 2.1063 18.4064C2.07051 18.4161 2.0339 18.4235 1.99851 18.4344C1.93058 18.456 1.86468 18.4816 1.79878 18.5081C1.77885 18.5162 1.75769 18.5223 1.73776 18.5308C1.65681 18.565 1.57831 18.6041 1.50102 18.6456C1.49776 18.6472 1.4941 18.6488 1.49085 18.6504C1.24027 18.7867 1.01166 18.9592 0.813559 19.1614V2.84746ZM23.1864 23.1864H2.82305C1.71498 23.1864 0.813559 22.285 0.813559 21.1525C0.813559 20.031 1.72597 19.1186 2.84746 19.1186C3.96895 19.1186 4.88136 20.031 4.88136 21.1525H5.69491V3.66102H23.1864V23.1864Z" fill="white"/>
<path d="M18.7187 8.54277C18.7903 8.5928 18.8721 8.61721 18.953 8.61721C19.0808 8.61721 19.2065 8.55741 19.2858 8.44514C19.4151 8.26168 19.3716 8.00785 19.1882 7.87768L18.5235 7.40866C18.3392 7.27971 18.0862 7.32324 17.956 7.50629C17.8267 7.68975 17.8702 7.94358 18.0536 8.07375L18.7187 8.54277Z" fill="white"/>
<path d="M20.7132 9.95021C20.7844 10.0002 20.8661 10.0247 20.9471 10.0247C21.0748 10.0247 21.2005 9.96485 21.2798 9.85218C21.4092 9.66872 21.3652 9.41489 21.1818 9.28512L20.5167 8.81611C20.3332 8.68716 20.0798 8.73068 19.9496 8.91414C19.8203 9.0976 19.8642 9.35143 20.0477 9.48119L20.7132 9.95021Z" fill="white"/>
<path d="M15.0509 16.678C15.0509 16.9029 15.2327 17.0847 15.4577 17.0847H16.2712C16.4962 17.0847 16.678 16.9029 16.678 16.678C16.678 16.453 16.4962 16.2712 16.2712 16.2712H15.4577C15.2327 16.2712 15.0509 16.453 15.0509 16.678Z" fill="white"/>
<path d="M20.7457 11.1388V11.9524C20.7457 12.1774 20.9276 12.3592 21.1525 12.3592C21.3775 12.3592 21.5593 12.1774 21.5593 11.9524V11.1388C21.5593 10.9139 21.3775 10.7321 21.1525 10.7321C20.9276 10.7321 20.7457 10.9139 20.7457 11.1388Z" fill="white"/>
<path d="M16.7247 7.13536C16.7963 7.18539 16.8781 7.2098 16.959 7.2098C17.0867 7.2098 17.2124 7.15 17.2917 7.03773C17.4211 6.85427 17.3776 6.60044 17.1941 6.47027L16.5294 6.00125C16.3452 5.8723 16.0922 5.91583 15.962 6.09888C15.8326 6.28234 15.8762 6.53617 16.0596 6.66634L16.7247 7.13536Z" fill="white"/>
<path d="M17.4916 16.678C17.4916 16.9029 17.6734 17.0847 17.8984 17.0847H18.7119C18.9369 17.0847 19.1187 16.9029 19.1187 16.678C19.1187 16.453 18.9369 16.2712 18.7119 16.2712H17.8984C17.6734 16.2712 17.4916 16.453 17.4916 16.678Z" fill="white"/>
<path d="M11.7965 16.678C11.7965 16.453 11.6147 16.2712 11.3898 16.2712H10.5762C10.3513 16.2712 10.1694 16.453 10.1694 16.678C10.1694 16.9029 10.3513 17.0847 10.5762 17.0847H11.3898C11.6147 17.0847 11.7965 16.9029 11.7965 16.678Z" fill="white"/>
<path d="M21.1525 14.7999C21.3775 14.7999 21.5593 14.618 21.5593 14.3931V13.5795C21.5593 13.3546 21.3775 13.1727 21.1525 13.1727C20.9276 13.1727 20.7457 13.3546 20.7457 13.5795V14.3931C20.7457 14.618 20.9276 14.7999 21.1525 14.7999Z" fill="white"/>
<path d="M14.7307 5.72784C14.8023 5.77787 14.884 5.80228 14.965 5.80228C15.0927 5.80228 15.2184 5.74248 15.2977 5.63021C15.4271 5.44675 15.3836 5.19292 15.2001 5.06275L14.5354 4.59373C14.3512 4.46519 14.0981 4.50872 13.968 4.69136C13.8386 4.87482 13.8821 5.12865 14.0656 5.25882L14.7307 5.72784Z" fill="white"/>
<path d="M20.7458 16.2712H20.339C20.1141 16.2712 19.9323 16.453 19.9323 16.6779C19.9323 16.9029 20.1141 17.0847 20.339 17.0847H21.5594V16.0202C21.5594 15.7952 21.3775 15.6134 21.1526 15.6134C20.9276 15.6134 20.7458 15.7952 20.7458 16.0202V16.2712Z" fill="white"/>
<path d="M8.13554 17.0847H8.9491C9.17404 17.0847 9.35587 16.9029 9.35587 16.678C9.35587 16.453 9.17404 16.2712 8.9491 16.2712H8.13554C7.91059 16.2712 7.72876 16.453 7.72876 16.678C7.72876 16.9029 7.91059 17.0847 8.13554 17.0847Z" fill="white"/>
<path d="M7.32207 11.3898C7.54702 11.3898 7.72885 11.208 7.72885 10.983V10.1695C7.72885 9.94453 7.54702 9.7627 7.32207 9.7627C7.09711 9.7627 6.91528 9.94453 6.91528 10.1695V10.983C6.91528 11.208 7.09711 11.3898 7.32207 11.3898Z" fill="white"/>
<path d="M8.31949 9.46577C8.40044 9.46577 8.4822 9.44137 8.5538 9.39133L9.21848 8.92231C9.40194 8.79255 9.44587 8.53872 9.31611 8.35485C9.18675 8.1718 8.93333 8.12787 8.74865 8.25723L8.08396 8.72624C7.90051 8.85601 7.85657 9.10984 7.98634 9.2937C8.06607 9.40557 8.19176 9.46577 8.31949 9.46577Z" fill="white"/>
<path d="M10.3135 8.05831C10.3945 8.05831 10.4762 8.03391 10.5478 7.98387L11.2125 7.51486C11.3959 7.38509 11.4399 7.13126 11.3101 6.9474C11.1804 6.76475 10.9273 6.72082 10.7427 6.84977L10.078 7.31879C9.89452 7.44855 9.85059 7.70238 9.98036 7.88624C10.0597 7.99811 10.1854 8.05831 10.3135 8.05831Z" fill="white"/>
<path d="M7.32207 13.8305C7.54702 13.8305 7.72885 13.6487 7.72885 13.4237V12.6102C7.72885 12.3852 7.54702 12.2034 7.32207 12.2034C7.09711 12.2034 6.91528 12.3852 6.91528 12.6102V13.4237C6.91528 13.6487 7.09711 13.8305 7.32207 13.8305Z" fill="white"/>
<path d="M12.3075 6.65083C12.3885 6.65083 12.4702 6.62642 12.5418 6.57639L13.2065 6.10737C13.39 5.97761 13.4339 5.72378 13.3041 5.53992C13.1744 5.35727 12.9218 5.31253 12.7367 5.44229L12.072 5.91131C11.8885 6.04107 11.8446 6.2949 11.9744 6.47876C12.0541 6.59063 12.1794 6.65083 12.3075 6.65083Z" fill="white"/>
<path d="M12.6101 16.678C12.6101 16.9029 12.7919 17.0847 13.0169 17.0847H13.8305C14.0554 17.0847 14.2372 16.9029 14.2372 16.678C14.2372 16.453 14.0554 16.2712 13.8305 16.2712H13.0169C12.7919 16.2712 12.6101 16.453 12.6101 16.678Z" fill="white"/>
<path d="M7.32207 16.2712C7.54702 16.2712 7.72885 16.0893 7.72885 15.8644V15.0508C7.72885 14.8259 7.54702 14.644 7.32207 14.644C7.09711 14.644 6.91528 14.8259 6.91528 15.0508V15.8644C6.91528 16.0893 7.09711 16.2712 7.32207 16.2712Z" fill="white"/>
<path d="M16.678 21.9661H21.9661V18.7119H16.678V21.9661ZM17.4915 19.5254H21.1526V21.1525H17.4915V19.5254Z" fill="white"/>
<path d="M8.9491 12.2034V13.017C8.9491 13.2419 9.13093 13.4238 9.35588 13.4238C9.58083 13.4238 9.76266 13.2419 9.76266 13.017V12.2034C9.76266 11.9785 9.58083 11.7966 9.35588 11.7966C9.13093 11.7966 8.9491 11.9785 8.9491 12.2034Z" fill="white"/>
<path d="M12.6102 10.983C12.3852 10.983 12.2034 11.1649 12.2034 11.3898V12.2034C12.2034 12.4283 12.3852 12.6102 12.6102 12.6102C12.8351 12.6102 13.0169 12.4283 13.0169 12.2034V11.3898C13.0169 11.1649 12.8351 10.983 12.6102 10.983Z" fill="white"/>
<path d="M10.1695 11.7966H10.983C11.208 11.7966 11.3898 11.6148 11.3898 11.3898C11.3898 11.1649 11.208 10.983 10.983 10.983H10.1695C9.94453 10.983 9.7627 11.1649 9.7627 11.3898C9.7627 11.6148 9.94453 11.7966 10.1695 11.7966Z" fill="white"/>
<path d="M10.5762 14.6441C10.5762 14.4191 10.3944 14.2373 10.1694 14.2373H9.35588C9.13093 14.2373 8.9491 14.4191 8.9491 14.6441C8.9491 14.869 9.13093 15.0509 9.35588 15.0509H10.1694C10.3944 15.0509 10.5762 14.869 10.5762 14.6441Z" fill="white"/>
<path d="M11.7965 15.0508H12.6101C12.8351 15.0508 13.0169 14.869 13.0169 14.6441V13.8305C13.0169 13.6055 12.8351 13.4237 12.6101 13.4237C12.3852 13.4237 12.2033 13.6055 12.2033 13.8305V14.2373H11.7965C11.5716 14.2373 11.3898 14.4191 11.3898 14.6441C11.3898 14.869 11.5716 15.0508 11.7965 15.0508Z" fill="white"/>
<path d="M16.2712 11.3898C16.2712 11.6148 16.4531 11.7966 16.678 11.7966H17.4916C17.7165 11.7966 17.8984 11.6148 17.8984 11.3898C17.8984 11.1649 17.7165 10.983 17.4916 10.983H16.678C16.4531 10.983 16.2712 11.1649 16.2712 11.3898Z" fill="white"/>
<path d="M18.7119 11.3898V12.2034C18.7119 12.4283 18.8937 12.6102 19.1187 12.6102C19.3436 12.6102 19.5255 12.4283 19.5255 12.2034V11.3898C19.5255 11.1649 19.3436 10.983 19.1187 10.983C18.8937 10.983 18.7119 11.1649 18.7119 11.3898Z" fill="white"/>
<path d="M19.1187 15.0508C19.3436 15.0508 19.5254 14.869 19.5254 14.6441V13.8305C19.5254 13.6055 19.3436 13.4237 19.1187 13.4237C18.8937 13.4237 18.7119 13.6055 18.7119 13.8305V14.2373H18.3051C18.0801 14.2373 17.8983 14.4191 17.8983 14.6441C17.8983 14.869 18.0801 15.0508 18.3051 15.0508H19.1187Z" fill="white"/>
<path d="M15.8644 13.4238C16.0894 13.4238 16.2712 13.2419 16.2712 13.017V12.2034C16.2712 11.9785 16.0894 11.7966 15.8644 11.7966C15.6395 11.7966 15.4576 11.9785 15.4576 12.2034V13.017C15.4576 13.2419 15.6395 13.4238 15.8644 13.4238Z" fill="white"/>
<path d="M15.8644 15.0509H16.678C16.9029 15.0509 17.0848 14.869 17.0848 14.6441C17.0848 14.4191 16.9029 14.2373 16.678 14.2373H15.8644C15.6395 14.2373 15.4576 14.4191 15.4576 14.6441C15.4576 14.869 15.6395 15.0509 15.8644 15.0509Z" fill="white"/>
<path d="M15.4576 18.7119H13.4237C13.1988 18.7119 13.017 18.8937 13.017 19.1186C13.017 19.3436 13.1988 19.5254 13.4237 19.5254H15.4576C15.6826 19.5254 15.8644 19.3436 15.8644 19.1186C15.8644 18.8937 15.6826 18.7119 15.4576 18.7119Z" fill="white"/>
<path d="M15.4576 19.9322H12.6101C12.3852 19.9322 12.2034 20.114 12.2034 20.339C12.2034 20.5639 12.3852 20.7458 12.6101 20.7458H15.4576C15.6826 20.7458 15.8644 20.5639 15.8644 20.339C15.8644 20.114 15.6826 19.9322 15.4576 19.9322Z" fill="white"/>
<path d="M15.4576 21.1525H11.3898C11.1649 21.1525 10.983 21.3344 10.983 21.5593C10.983 21.7843 11.1649 21.9661 11.3898 21.9661H15.4576C15.6826 21.9661 15.8644 21.7843 15.8644 21.5593C15.8644 21.3344 15.6826 21.1525 15.4576 21.1525Z" fill="white"/>
<path d="M1.62712 2.4407C1.85177 2.4407 2.03389 2.25858 2.03389 2.03392C2.03389 1.80926 1.85177 1.62714 1.62712 1.62714C1.40246 1.62714 1.22034 1.80926 1.22034 2.03392C1.22034 2.25858 1.40246 2.4407 1.62712 2.4407Z" fill="white"/>
<path d="M4.06779 2.4407C4.29245 2.4407 4.47457 2.25858 4.47457 2.03392C4.47457 1.80926 4.29245 1.62714 4.06779 1.62714C3.84313 1.62714 3.66101 1.80926 3.66101 2.03392C3.66101 2.25858 3.84313 2.4407 4.06779 2.4407Z" fill="white"/>
<path d="M2.84745 3.66103C3.07211 3.66103 3.25423 3.47891 3.25423 3.25425C3.25423 3.0296 3.07211 2.84747 2.84745 2.84747C2.62279 2.84747 2.44067 3.0296 2.44067 3.25425C2.44067 3.47891 2.62279 3.66103 2.84745 3.66103Z" fill="white"/>
<path d="M1.62712 4.88137C1.85177 4.88137 2.03389 4.69925 2.03389 4.47459C2.03389 4.24993 1.85177 4.06781 1.62712 4.06781C1.40246 4.06781 1.22034 4.24993 1.22034 4.47459C1.22034 4.69925 1.40246 4.88137 1.62712 4.88137Z" fill="white"/>
<path d="M4.06779 4.88137C4.29245 4.88137 4.47457 4.69925 4.47457 4.47459C4.47457 4.24993 4.29245 4.06781 4.06779 4.06781C3.84313 4.06781 3.66101 4.24993 3.66101 4.47459C3.66101 4.69925 3.84313 4.88137 4.06779 4.88137Z" fill="white"/>
<path d="M1.62712 7.32205C1.85177 7.32205 2.03389 7.13993 2.03389 6.91527C2.03389 6.69061 1.85177 6.50848 1.62712 6.50848C1.40246 6.50848 1.22034 6.69061 1.22034 6.91527C1.22034 7.13993 1.40246 7.32205 1.62712 7.32205Z" fill="white"/>
<path d="M4.06779 7.32205C4.29245 7.32205 4.47457 7.13993 4.47457 6.91527C4.47457 6.69061 4.29245 6.50848 4.06779 6.50848C3.84313 6.50848 3.66101 6.69061 3.66101 6.91527C3.66101 7.13993 3.84313 7.32205 4.06779 7.32205Z" fill="white"/>
<path d="M2.84745 6.1017C3.07211 6.1017 3.25423 5.91958 3.25423 5.69493C3.25423 5.47027 3.07211 5.28815 2.84745 5.28815C2.62279 5.28815 2.44067 5.47027 2.44067 5.69493C2.44067 5.91958 2.62279 6.1017 2.84745 6.1017Z" fill="white"/>
<path d="M2.84745 8.54239C3.07211 8.54239 3.25423 8.36026 3.25423 8.1356C3.25423 7.91094 3.07211 7.72882 2.84745 7.72882C2.62279 7.72882 2.44067 7.91094 2.44067 8.1356C2.44067 8.36026 2.62279 8.54239 2.84745 8.54239Z" fill="white"/>
<path d="M1.62712 9.76272C1.85177 9.76272 2.03389 9.5806 2.03389 9.35594C2.03389 9.13128 1.85177 8.94916 1.62712 8.94916C1.40246 8.94916 1.22034 9.13128 1.22034 9.35594C1.22034 9.5806 1.40246 9.76272 1.62712 9.76272Z" fill="white"/>
<path d="M4.06779 9.76272C4.29245 9.76272 4.47457 9.5806 4.47457 9.35594C4.47457 9.13128 4.29245 8.94916 4.06779 8.94916C3.84313 8.94916 3.66101 9.13128 3.66101 9.35594C3.66101 9.5806 3.84313 9.76272 4.06779 9.76272Z" fill="white"/>
<path d="M1.62712 12.2034C1.85177 12.2034 2.03389 12.0213 2.03389 11.7966C2.03389 11.572 1.85177 11.3898 1.62712 11.3898C1.40246 11.3898 1.22034 11.572 1.22034 11.7966C1.22034 12.0213 1.40246 12.2034 1.62712 12.2034Z" fill="white"/>
<path d="M4.06779 12.2034C4.29245 12.2034 4.47457 12.0213 4.47457 11.7966C4.47457 11.572 4.29245 11.3898 4.06779 11.3898C3.84313 11.3898 3.66101 11.572 3.66101 11.7966C3.66101 12.0213 3.84313 12.2034 4.06779 12.2034Z" fill="white"/>
<path d="M2.84745 10.9831C3.07211 10.9831 3.25423 10.8009 3.25423 10.5763C3.25423 10.3516 3.07211 10.1695 2.84745 10.1695C2.62279 10.1695 2.44067 10.3516 2.44067 10.5763C2.44067 10.8009 2.62279 10.9831 2.84745 10.9831Z" fill="white"/>
<path d="M2.84745 13.4237C3.07211 13.4237 3.25423 13.2416 3.25423 13.017C3.25423 12.7923 3.07211 12.6102 2.84745 12.6102C2.62279 12.6102 2.44067 12.7923 2.44067 13.017C2.44067 13.2416 2.62279 13.4237 2.84745 13.4237Z" fill="white"/>
<path d="M1.62712 14.6441C1.85177 14.6441 2.03389 14.4619 2.03389 14.2373C2.03389 14.0126 1.85177 13.8305 1.62712 13.8305C1.40246 13.8305 1.22034 14.0126 1.22034 14.2373C1.22034 14.4619 1.40246 14.6441 1.62712 14.6441Z" fill="white"/>
<path d="M4.06779 14.6441C4.29245 14.6441 4.47457 14.4619 4.47457 14.2373C4.47457 14.0126 4.29245 13.8305 4.06779 13.8305C3.84313 13.8305 3.66101 14.0126 3.66101 14.2373C3.66101 14.4619 3.84313 14.6441 4.06779 14.6441Z" fill="white"/>
<path d="M1.62712 17.0847C1.85177 17.0847 2.03389 16.9026 2.03389 16.678C2.03389 16.4533 1.85177 16.2712 1.62712 16.2712C1.40246 16.2712 1.22034 16.4533 1.22034 16.678C1.22034 16.9026 1.40246 17.0847 1.62712 17.0847Z" fill="white"/>
<path d="M4.06779 17.0847C4.29245 17.0847 4.47457 16.9026 4.47457 16.678C4.47457 16.4533 4.29245 16.2712 4.06779 16.2712C3.84313 16.2712 3.66101 16.4533 3.66101 16.678C3.66101 16.9026 3.84313 17.0847 4.06779 17.0847Z" fill="white"/>
<path d="M2.84745 15.8644C3.07211 15.8644 3.25423 15.6823 3.25423 15.4576C3.25423 15.233 3.07211 15.0508 2.84745 15.0508C2.62279 15.0508 2.44067 15.233 2.44067 15.4576C2.44067 15.6823 2.62279 15.8644 2.84745 15.8644Z" fill="white"/>
<path d="M2.84745 18.3051C3.07211 18.3051 3.25423 18.123 3.25423 17.8983C3.25423 17.6736 3.07211 17.4915 2.84745 17.4915C2.62279 17.4915 2.44067 17.6736 2.44067 17.8983C2.44067 18.123 2.62279 18.3051 2.84745 18.3051Z" fill="white"/>
</svg>
