<svg width="67" height="57" viewBox="0 0 67 57" fill="none" xmlns="http://www.w3.org/2000/svg">
<g clip-path="url(#clip0_241_11485)">
<path d="M28.5297 6.04294H26.8994V34.1652H28.5297V6.04294Z" fill="url(#paint0_linear_241_11485)"/>
<path d="M33.828 6.04294H32.1978V34.1652H33.828V6.04294Z" fill="url(#paint1_linear_241_11485)"/>
<path d="M39.0448 6.04294H37.4146V34.1652H39.0448V6.04294Z" fill="url(#paint2_linear_241_11485)"/>
<path d="M21.764 18.27C18.911 16.5582 17.1177 13.4607 17.1177 10.0371C17.1177 4.82023 21.3564 0.5 26.6548 0.5H48.9081V7.51019H47.2778V2.13028H26.6548C22.3346 2.13028 18.748 5.71689 18.748 10.1186C18.748 12.564 19.8891 14.8464 21.764 16.3137V18.27Z" fill="url(#paint3_linear_241_11485)"/>
<path d="M17.1177 39.7082V32.698H18.748V38.0779H39.2894C43.6912 38.0779 47.2778 34.4913 47.2778 30.0895C47.2778 27.6441 46.1366 25.3617 44.2618 23.8945V21.9381C47.1148 23.6499 48.9081 26.7475 48.9081 30.171C48.9081 35.4694 44.5878 39.7897 39.2894 39.7897H17.1177V39.7082Z" fill="url(#paint4_linear_241_11485)"/>
<path d="M2.28239 46.9629L1.95633 46.7999C1.30422 46.5553 0.896652 46.2293 0.896652 45.5771C0.896652 44.8435 1.46725 44.5175 2.20087 44.5175C2.52693 44.5175 2.68996 44.599 2.9345 44.6805L3.09753 45.7402H3.66812L3.74964 44.5175C3.34207 44.1914 2.85298 44.0284 2.20087 44.0284C1.05968 44.0284 0.0815138 44.6805 0.0815138 45.7402C0.0815138 46.7183 0.733624 47.2074 1.71179 47.615L2.03785 47.778C2.85298 48.1041 3.17904 48.3486 3.17904 49.0007C3.17904 49.7344 2.60844 50.1419 1.71179 50.1419C1.30422 50.1419 1.05968 50.0604 0.733624 49.8974L0.570597 48.8377H0.0815138L0 50.1419C0.407569 50.3865 1.14119 50.631 1.7933 50.631C3.09753 50.631 3.99418 49.9789 3.99418 48.8377C3.99418 48.0226 3.50509 47.452 2.28239 46.9629Z" fill="url(#paint5_linear_241_11485)"/>
<path d="M6.35816 50.1419C6.0321 50.1419 5.86907 49.8974 5.86907 49.4898V46.6368H7.1733V46.1477H5.86907L5.95059 44.925H5.37999L5.13545 46.1477L4.32031 46.2293V46.6368H5.13545V48.8377C5.13545 49.1638 5.13545 49.4083 5.13545 49.6528C5.13545 50.3865 5.54302 50.7125 6.19513 50.7125C6.68421 50.7125 7.01027 50.5495 7.25481 50.2234L7.01027 49.9789C6.76573 50.0604 6.6027 50.1419 6.35816 50.1419Z" fill="url(#paint6_linear_241_11485)"/>
<path d="M11.4933 47.778C11.4933 46.6368 10.7596 45.9847 9.78147 45.9847C8.64028 45.9847 7.66211 46.9629 7.66211 48.3486C7.66211 49.7343 8.47725 50.631 9.69996 50.631C10.5151 50.631 11.1672 50.2234 11.4933 49.5713L11.3302 49.4083C11.0042 49.8159 10.5966 50.0604 10.026 50.0604C9.12936 50.0604 8.55876 49.4083 8.47725 48.2671H11.4933C11.4933 48.1856 11.4933 47.941 11.4933 47.778ZM10.2706 47.8595H8.55876C8.64028 46.7998 9.29239 46.3923 9.78147 46.3923C10.3521 46.3923 10.8411 46.8814 10.8411 47.3704C10.7596 47.6965 10.6781 47.8595 10.2706 47.8595Z" fill="url(#paint7_linear_241_11485)"/>
<path d="M13.6127 48.5116V45.0066V43.7023L13.4497 43.6208L12.064 44.0284V44.3544L12.7976 44.436V48.5116C12.7976 49.0007 12.7976 49.4898 12.7976 49.9789L12.064 50.1419V50.468H12.7976H13.6127H14.3464V50.1419L13.6127 49.9789C13.6942 49.5713 13.6127 49.0822 13.6127 48.5116Z" fill="url(#paint8_linear_241_11485)"/>
<path d="M16.3842 48.5116V45.0066V43.7023L16.3027 43.6208L14.917 44.0284V44.3544L15.6506 44.436V48.5116C15.6506 49.0007 15.6506 49.4898 15.6506 49.9789L14.917 50.1419V50.468H15.6506H16.4658H17.1994V50.1419L16.4658 49.9789C16.3842 49.5713 16.3842 49.0822 16.3842 48.5116Z" fill="url(#paint9_linear_241_11485)"/>
<path d="M21.4381 50.1419C21.1936 50.1419 21.1121 49.9789 21.1121 49.5713V47.615C21.1121 46.4738 20.623 45.9847 19.7264 45.9847C18.8297 45.9847 18.0961 46.3923 17.933 47.1259C17.933 47.3704 18.0961 47.5335 18.3406 47.5335C18.5852 47.5335 18.7482 47.3704 18.8297 47.1259L18.9927 46.4738C19.1558 46.3923 19.4003 46.3923 19.4818 46.3923C20.1339 46.3923 20.3785 46.6368 20.3785 47.5335V47.778C19.9709 47.8595 19.5633 48.0226 19.3188 48.1041C18.0961 48.5932 17.77 49.0007 17.77 49.4898C17.77 50.2234 18.3406 50.631 18.9927 50.631C19.5633 50.631 19.8079 50.3865 20.3785 49.8974C20.46 50.3049 20.786 50.631 21.1936 50.631C21.5197 50.631 21.7642 50.5495 22.0087 50.1419L21.8457 49.8974C21.6827 50.0604 21.6012 50.1419 21.4381 50.1419ZM18.5036 49.3268C18.5036 49.0822 18.5852 48.6747 19.4003 48.3486C19.5633 48.2671 19.9709 48.1856 20.2969 48.1041V49.4898C19.7264 49.8974 19.5633 49.9789 19.2373 49.9789C18.8297 49.9789 18.5036 49.8159 18.5036 49.3268Z" fill="url(#paint10_linear_241_11485)"/>
<path d="M28.9374 48.6747C28.6929 47.9411 28.3669 47.615 27.8778 47.5335C28.9374 47.3705 29.4265 46.7183 29.4265 45.9847C29.4265 44.925 28.6114 44.3544 27.1441 44.3544H26.329H25.9214H25.5139H24.6987V44.762L25.5954 44.8435C25.5954 45.6587 25.5954 46.4738 25.5954 47.2889V47.778C25.5954 48.5932 25.5954 49.4083 25.5954 50.2234L24.6987 50.305V50.7125H25.5139H26.4105H27.2257V50.305L26.329 50.2234C26.329 49.4083 26.329 48.6747 26.329 47.778H26.8181C27.5517 47.778 27.9593 47.9411 28.1223 48.6747L28.5299 50.2234C28.6114 50.631 28.8559 50.794 29.508 50.794C29.7526 50.794 29.9971 50.794 30.1602 50.7125V50.305L29.345 50.0604L28.9374 48.6747ZM26.329 47.2074C26.329 46.3108 26.329 45.4956 26.329 44.6805H27.1441C28.1223 44.6805 28.5299 45.0881 28.5299 45.9032C28.5299 46.6368 28.0408 47.2074 27.0626 47.2074H26.329Z" fill="url(#paint11_linear_241_11485)"/>
<path d="M34.399 47.778C34.399 46.6368 33.6654 45.9847 32.6872 45.9847C31.546 45.9847 30.5679 46.9629 30.5679 48.3486C30.5679 49.7343 31.383 50.631 32.6057 50.631C33.4209 50.631 34.073 50.2234 34.399 49.5713L34.1545 49.4083C33.8284 49.8159 33.4209 50.0604 32.8503 50.0604C31.9536 50.0604 31.383 49.4083 31.3015 48.2671H34.3175C34.3175 48.1856 34.399 47.941 34.399 47.778ZM33.0948 47.8595H31.383C31.4645 46.7998 32.1166 46.3923 32.6057 46.3923C33.1763 46.3923 33.6654 46.8814 33.6654 47.3704C33.6654 47.6965 33.5839 47.8595 33.0948 47.8595Z" fill="url(#paint12_linear_241_11485)"/>
<path d="M37.2518 47.9411L37.0072 47.8595C36.3551 47.615 36.1106 47.452 36.1106 47.0444C36.1106 46.6368 36.4366 46.3923 37.0072 46.3923C37.2518 46.3923 37.4148 46.4738 37.6593 46.5553L37.8224 47.2889H38.3115V46.3108C37.9039 46.0662 37.4963 45.9032 37.0072 45.9032C35.9476 45.9032 35.377 46.5553 35.377 47.2074C35.377 47.8595 35.7845 48.1856 36.5181 48.4301L36.9257 48.5932C37.4963 48.8377 37.8224 49.0007 37.8224 49.4083C37.8224 49.8159 37.4963 50.1419 36.7627 50.1419C36.4366 50.1419 36.1921 50.0604 36.0291 49.9789L35.866 49.1638H35.377V50.1419C35.866 50.3865 36.1921 50.468 36.7627 50.468C37.9854 50.468 38.556 49.8159 38.556 49.1638C38.4745 48.7562 38.1484 48.2671 37.2518 47.9411Z" fill="url(#paint13_linear_241_11485)"/>
<path d="M40.6752 48.5116V47.2889V46.0662L40.5122 45.9847L39.1265 46.5553V46.8814L39.8601 46.9629C39.8601 47.3704 39.8601 47.615 39.8601 48.1041V48.5116C39.8601 48.9192 39.8601 49.5713 39.8601 49.9789L39.1265 50.1419V50.468H39.8601H40.6752H41.3273V50.1419L40.6752 49.9789C40.6752 49.5713 40.6752 49.0007 40.6752 48.5116Z" fill="url(#paint14_linear_241_11485)"/>
<path d="M40.2678 44.925C40.5939 44.925 40.9199 44.6805 40.9199 44.3544C40.9199 44.0284 40.6754 43.7838 40.2678 43.7838C39.9418 43.7838 39.6157 44.0284 39.6157 44.3544C39.6972 44.6805 39.9418 44.925 40.2678 44.925Z" fill="url(#paint15_linear_241_11485)"/>
<path d="M45.9737 45.0066V43.7023L45.8107 43.6208L44.4249 44.0284V44.3544L45.2401 44.436V46.5553C44.8325 46.0662 44.4249 45.9847 44.0174 45.9847C42.8762 45.9847 42.061 46.9629 42.061 48.3486C42.061 49.7344 42.7947 50.631 43.9359 50.631C44.5065 50.631 44.914 50.3865 45.2401 49.9789L45.3216 50.631L46.7073 50.5495V50.2234L45.9737 50.0604V45.0066ZM44.1804 50.1419C43.4468 50.1419 42.8762 49.5713 42.8762 48.3486C42.8762 47.0444 43.4468 46.5553 44.1804 46.5553C44.5065 46.5553 44.8325 46.6368 45.2401 47.0444V49.5713C44.8325 49.9789 44.588 50.1419 44.1804 50.1419Z" fill="url(#paint16_linear_241_11485)"/>
<path d="M51.109 47.778C51.109 46.6368 50.3754 45.9847 49.3972 45.9847C48.256 45.9847 47.2778 46.9629 47.2778 48.3486C47.2778 49.7343 48.093 50.631 49.3157 50.631C50.1308 50.631 50.7829 50.2234 51.109 49.5713L50.946 49.4083C50.6199 49.8159 50.2123 50.0604 49.6417 50.0604C48.7451 50.0604 48.1745 49.4083 48.093 48.2671H51.109C51.109 48.1856 51.109 47.941 51.109 47.778ZM49.8863 47.8595H48.093C48.1745 46.7998 48.8266 46.3923 49.3157 46.3923C49.8863 46.3923 50.3754 46.8814 50.3754 47.3704C50.3754 47.6965 50.2938 47.8595 49.8863 47.8595Z" fill="url(#paint17_linear_241_11485)"/>
<path d="M56.2445 48.5116V47.6965C56.2445 46.4738 55.837 45.9847 55.1034 45.9847C54.5328 45.9847 53.8806 46.3108 53.3916 46.7998L53.3101 46.0662L53.147 45.9847L51.9243 46.5553V46.8814L52.6579 46.9629C52.6579 47.3704 52.6579 47.615 52.6579 48.1041V48.5116C52.6579 48.9192 52.6579 49.5713 52.6579 49.9789L51.9243 50.1419V50.468H52.5764H53.3916H54.0437V50.1419L53.3916 49.9789C53.3916 49.4898 53.3916 48.9192 53.3916 48.5116V47.2074C53.8806 46.7998 54.2882 46.6368 54.6958 46.6368C55.2664 46.6368 55.5109 46.8814 55.5109 47.778V48.5932C55.5109 49.0007 55.5109 49.6528 55.5109 50.0604L54.7773 50.2234V50.5495H55.4294H56.2445H56.8967V50.2234L56.2445 50.0604C56.2445 49.5713 56.2445 49.0007 56.2445 48.5116Z" fill="url(#paint18_linear_241_11485)"/>
<path d="M59.9128 50.0604C59.0161 50.0604 58.4455 49.4083 58.4455 48.2671C58.4455 47.0444 59.0161 46.4738 59.8312 46.4738C59.9943 46.4738 60.1573 46.4738 60.3203 46.5553L60.4834 47.2074C60.5649 47.452 60.6464 47.615 60.9724 47.615C61.217 47.615 61.38 47.5335 61.38 47.2889C61.2985 46.6368 60.5649 46.0662 59.7497 46.0662C58.6085 46.0662 57.6304 46.9629 57.6304 48.4301C57.6304 49.8159 58.4455 50.7125 59.6682 50.7125C60.5649 50.7125 61.1355 50.305 61.38 49.4898L61.1355 49.4083C60.8909 49.8159 60.4018 50.0604 59.9128 50.0604Z" fill="url(#paint19_linear_241_11485)"/>
<path d="M64.4772 50.0604C63.5806 50.0604 63.01 49.4083 62.9284 48.2671H65.9445C65.9445 48.1856 66.026 47.941 66.026 47.778C66.026 46.6368 65.2923 45.9847 64.3142 45.9847C63.173 45.9847 62.1948 46.9629 62.1948 48.3486C62.1948 49.7343 63.01 50.631 64.2327 50.631C65.0478 50.631 65.6999 50.2234 66.026 49.5713L65.7814 49.4083C65.4554 49.7343 65.0478 50.0604 64.4772 50.0604ZM64.2327 46.3923C64.8033 46.3923 65.2923 46.8814 65.2923 47.3704C65.2923 47.615 65.2108 47.8595 64.7217 47.8595H63.01C63.0915 46.7998 63.6621 46.3923 64.2327 46.3923Z" fill="url(#paint20_linear_241_11485)"/>
<path d="M8.55908 54.0546V53.9731H9.53725V54.0546H9.12968H8.96665H8.55908ZM9.04817 56.2555V56.4185H8.55908V56.337L9.04817 56.2555ZM8.88514 53.9731H9.12968C9.12968 54.3807 9.12968 54.7067 9.12968 55.1958V55.3588C9.12968 55.6849 9.12968 56.0109 9.12968 56.4185H8.88514C8.88514 56.0109 8.88514 55.6849 8.88514 55.2773V55.1143C8.88514 54.7067 8.88514 54.3807 8.88514 53.9731ZM10.2709 55.7664V56.4185H9.04817V56.337H10.1894L10.1078 56.4185L10.1894 55.7664H10.2709Z" fill="url(#paint21_linear_241_11485)"/>
<path d="M10.5972 54.0546V53.9731H11.5753V54.0546H11.1678H11.0863H10.5972ZM11.0863 56.2555H11.4938V56.337H10.5972V56.2555H11.0863ZM10.9232 55.1143C10.9232 54.7067 10.9232 54.3807 10.9232 53.9731H11.1678C11.1678 54.2991 11.1678 54.7067 11.1678 55.1143V55.2773C11.1678 55.6849 11.1678 56.0109 11.1678 56.4185H10.9232C10.9232 56.0924 10.9232 55.6849 10.9232 55.2773V55.1143Z" fill="url(#paint22_linear_241_11485)"/>
<path d="M12.1459 54.1361H11.7383V54.0546H12.6349V54.1361H12.1459ZM11.9828 53.9731H12.2274L12.961 56.2555H12.8795L13.6131 53.9731H13.7761L12.961 56.4185H12.8795L11.9828 53.9731ZM13.6131 54.1361H13.2055V54.0546H14.0207V54.1361H13.6131Z" fill="url(#paint23_linear_241_11485)"/>
<path d="M14.1836 54.0546V53.9731H14.6727V54.1361L14.1836 54.0546ZM14.6727 56.2555V56.4185H14.1836V56.337L14.6727 56.2555ZM14.5912 55.1143C14.5912 54.7067 14.5912 54.3807 14.5912 53.9731H14.8357C14.8357 54.2991 14.8357 54.7067 14.8357 55.1143V55.1958C14.8357 55.6849 14.8357 56.0109 14.8357 56.4185H14.5912C14.5912 56.0924 14.5912 55.6849 14.5912 55.2773V55.1143ZM15.7324 53.9731L15.8139 54.0546H14.6727V53.9731H15.9769V54.5437H15.8139L15.7324 53.9731ZM15.4878 55.2773H14.6727V55.1143H15.4878V55.2773ZM16.0584 55.8479V56.4185H14.6727V56.337H15.8954L15.8139 56.4185L15.8954 55.8479H16.0584ZM15.4063 55.1143L15.4878 54.7882H15.5693V55.6034H15.4878L15.4063 55.1143Z" fill="url(#paint24_linear_241_11485)"/>
<path d="M17.2812 54.0546V53.9731H18.2594V54.0546H17.8518H17.7703H17.2812ZM17.6888 56.2555V56.4185H17.1997V56.337L17.6888 56.2555ZM17.6073 53.9731H17.8518C17.8518 54.3807 17.8518 54.7067 17.8518 55.1958V55.3588C17.8518 55.6849 17.8518 56.0109 17.8518 56.4185H17.6073C17.6073 56.0109 17.6073 55.6849 17.6073 55.2773V55.1143C17.6073 54.7067 17.6073 54.3807 17.6073 53.9731ZM18.993 55.7664V56.4185H17.7703V56.337H18.9115L18.7485 56.4185L18.83 55.7664H18.993Z" fill="url(#paint25_linear_241_11485)"/>
<path d="M19.1558 54.0546V53.9731H20.0524V54.0546H19.6448H19.5633H19.1558ZM20.3785 56.337C20.8676 56.337 21.0306 56.0924 21.0306 55.4403V54.0546H21.1936V55.5218C21.1936 56.174 20.8676 56.5 20.3785 56.5C19.8894 56.5 19.5633 56.2555 19.5633 55.5218V55.1143C19.5633 54.7067 19.5633 54.3807 19.5633 53.9731H19.8079C19.8079 54.3807 19.8079 54.7067 19.8079 55.1143V55.4403C19.7264 56.0924 19.9709 56.337 20.3785 56.337ZM21.0306 54.1361H20.623V54.0546H21.5197V54.1361H21.0306Z" fill="url(#paint26_linear_241_11485)"/>
<path d="M21.6826 56.337H22.0087H22.0902H22.4978V56.4185H21.6826V56.337ZM21.6826 53.9731H22.5793V54.0546H22.1717H22.0902H21.6826V53.9731ZM22.7423 55.1958L22.8238 55.2773L22.0902 56.4185H21.9272L22.7423 55.1958ZM21.9272 53.9731H22.1717L23.6389 56.4185H23.3944L21.9272 53.9731ZM23.3944 53.9731H23.5574L22.8238 55.1958L22.7423 55.1143L23.3944 53.9731ZM22.9868 56.337H23.3944H23.4759H23.8835V56.4185H22.9868V56.337ZM22.9868 53.9731H23.802V54.0546H23.3944H23.3129H22.9053V53.9731H22.9868Z" fill="url(#paint27_linear_241_11485)"/>
<path d="M24.0469 54.0546V53.9731H24.9435V54.0546H24.536H24.4544H24.0469ZM25.2696 56.337C25.7587 56.337 25.9217 56.0924 25.9217 55.4403V54.0546H26.0847V55.5218C26.0847 56.174 25.7587 56.5 25.2696 56.5C24.7805 56.5 24.4544 56.2555 24.4544 55.5218V55.1143C24.4544 54.7067 24.4544 54.3807 24.4544 53.9731H24.699C24.699 54.3807 24.699 54.7067 24.699 55.1143V55.4403C24.536 56.0924 24.862 56.337 25.2696 56.337ZM25.9217 54.1361H25.5141V54.0546H26.4108V54.1361H25.9217Z" fill="url(#paint28_linear_241_11485)"/>
<path d="M26.6552 54.0546V53.9731H27.1443V54.1361L26.6552 54.0546ZM27.1443 56.2555H27.5519V56.337H26.5737V56.2555H27.1443ZM26.9813 55.1143C26.9813 54.7067 26.9813 54.3807 26.9813 53.9731H27.2258C27.2258 54.3807 27.2258 54.7067 27.2258 55.1958V55.2773C27.2258 55.6849 27.2258 56.0924 27.2258 56.4185H26.9813C26.9813 56.0924 26.9813 55.6849 26.9813 55.2773V55.1143ZM27.1443 55.1958H27.6334C28.041 55.1958 28.2855 54.9513 28.2855 54.6252C28.2855 54.2991 28.1225 54.1361 27.6334 54.1361H27.1443V54.0546H27.6334C28.1225 54.0546 28.4486 54.2991 28.4486 54.7067C28.4486 55.0328 28.204 55.2773 27.7149 55.3588C27.9595 55.3588 28.1225 55.5219 28.204 55.7664L28.4486 56.4185L28.367 56.337H28.7746V56.4185C28.6931 56.4185 28.6116 56.4185 28.5301 56.4185C28.367 56.4185 28.2855 56.337 28.204 56.2555L28.041 55.6034C27.9595 55.3588 27.878 55.2773 27.5519 55.2773H27.1443V55.1958Z" fill="url(#paint29_linear_241_11485)"/>
<path d="M28.6929 54.0546V53.9731H29.5895V54.0546H29.182H29.1004H28.6929ZM29.7526 55.5218L28.9374 53.9731H29.182L29.8341 55.3588H29.7526L30.4862 53.8916H30.6492L29.9156 55.4403L29.7526 55.5218ZM29.8341 56.2555H30.3231V56.337H29.345V56.2555H29.8341ZM29.671 55.3588H29.8341C29.8341 55.9294 29.8341 56.0924 29.8341 56.4185H29.5895C29.671 56.0924 29.671 55.9294 29.671 55.3588ZM30.4047 54.1361H29.9971V54.0546H30.8122V54.1361H30.4047Z" fill="url(#paint30_linear_241_11485)"/>
<path d="M31.7905 55.2773H32.6057V55.4403H31.7905V55.2773Z" fill="url(#paint31_linear_241_11485)"/>
<path d="M33.8286 54.0546V53.9731H34.8068V54.0546H34.3992H34.2362H33.8286ZM34.3177 56.2555V56.4185H33.8286V56.337L34.3177 56.2555ZM34.1547 53.9731H34.3992C34.3992 54.3807 34.3992 54.7067 34.3992 55.1958V55.3588C34.3992 55.6849 34.3992 56.0109 34.3992 56.4185H34.1547C34.1547 56.0109 34.1547 55.6849 34.1547 55.2773V55.1143C34.2362 54.7067 34.2362 54.3807 34.1547 53.9731ZM35.6219 55.7664V56.4185H34.3992V56.337H35.5404L35.4589 56.4185L35.5404 55.7664H35.6219Z" fill="url(#paint32_linear_241_11485)"/>
<path d="M35.8662 54.0546V53.9731H36.8444V54.0546H36.4368H36.3553H35.8662ZM36.3553 56.2555H36.7629V56.337H35.8662V56.2555H36.3553ZM36.1923 55.1143C36.1923 54.7067 36.1923 54.3807 36.1923 53.9731H36.4368C36.4368 54.2991 36.4368 54.7067 36.4368 55.1143V55.2773C36.4368 55.6849 36.4368 56.0109 36.4368 56.4185H36.1923C36.1923 56.0924 36.1923 55.6849 36.1923 55.2773V55.1143Z" fill="url(#paint33_linear_241_11485)"/>
<path d="M37.4149 54.1361H37.0073V54.0546H37.904V54.1361H37.4149ZM37.2519 53.9731H37.4964L38.23 56.2555H38.1485L38.8821 53.9731H39.0452L38.23 56.4185H38.1485L37.2519 53.9731ZM38.8821 54.1361H38.4746V54.0546H39.2897V54.1361H38.8821Z" fill="url(#paint34_linear_241_11485)"/>
<path d="M39.5341 54.0546V53.9731H39.9417V54.1361L39.5341 54.0546ZM39.9417 56.2555V56.4185H39.4526V56.337L39.9417 56.2555ZM39.8602 55.1143C39.8602 54.7067 39.8602 54.3807 39.8602 53.9731H40.1047C40.1047 54.2991 40.1047 54.7067 40.1047 55.1143V55.1958C40.1047 55.6849 40.1047 56.0109 40.1047 56.4185H39.8602C39.8602 56.0924 39.8602 55.6849 39.8602 55.2773V55.1143ZM41.0829 53.9731L41.1644 54.0546H39.9417V53.9731H41.2459V54.5437H41.0829V53.9731ZM40.7569 55.2773H39.9417V55.1143H40.7569V55.2773ZM41.3275 55.8479V56.4185H39.9417V56.337H41.1644L41.0829 56.4185L41.1644 55.8479H41.3275ZM40.6753 55.1143L40.7569 54.7882H40.8384V55.6034H40.7569L40.6753 55.1143Z" fill="url(#paint35_linear_241_11485)"/>
<path d="M42.5503 54.0546V53.9731H43.5284V54.0546H43.1209H43.0393H42.5503ZM43.0393 56.2555H43.4469V56.337H42.4688V56.2555H43.0393ZM42.8763 55.1143C42.8763 54.7067 42.8763 54.3807 42.8763 53.9731H43.1209C43.1209 54.2991 43.1209 54.7067 43.1209 55.1143V55.2773C43.1209 55.6849 43.1209 56.0109 43.1209 56.4185H42.8763C42.8763 56.0924 42.8763 55.6849 42.8763 55.2773V55.1143Z" fill="url(#paint36_linear_241_11485)"/>
<path d="M44.099 54.0546L44.2621 54.1361H43.8545V54.0546H44.3436L45.8923 56.337V56.5H45.8108L44.099 54.0546ZM43.8545 56.337H44.1805H44.2621H44.6696V56.4185H43.8545V56.337ZM44.1805 53.9731L44.3436 54.0546V56.337H44.1805V53.9731ZM45.3217 53.9731H46.1369V54.0546H45.8108H45.7293H45.3217V53.9731ZM45.7293 53.9731H45.8923V56.4185L45.7293 56.2555V53.9731Z" fill="url(#paint37_linear_241_11485)"/>
<path d="M48.6641 55.8479C48.6641 55.6034 48.5011 55.4403 48.175 55.2773L48.012 55.1958C47.6044 55.0328 47.4414 54.8697 47.4414 54.5437C47.4414 54.1361 47.7674 53.8916 48.175 53.8916C48.4195 53.8916 48.5826 53.9731 48.7456 54.0546V54.4622H48.5826L48.5011 53.9731L48.6641 54.0546V54.1361C48.5011 53.9731 48.338 53.9731 48.175 53.9731C47.8489 53.9731 47.6044 54.1361 47.6044 54.4622C47.6044 54.7067 47.7674 54.8697 48.012 54.9513L48.175 55.0328C48.6641 55.1958 48.8271 55.4403 48.8271 55.7664C48.8271 56.174 48.5011 56.4185 48.012 56.4185C47.7674 56.4185 47.4414 56.337 47.3599 56.2555V55.7664H47.5229L47.6044 56.2555L47.4414 56.174V56.0924C47.6859 56.2555 47.7674 56.337 48.012 56.337C48.4195 56.337 48.6641 56.174 48.6641 55.8479Z" fill="url(#paint38_linear_241_11485)"/>
<path d="M49.1528 54.1361L49.2343 54.0546L49.1528 54.6252H48.9897V54.0546H50.9461V54.6252H50.7831L50.7015 54.0546L50.7831 54.1361H49.1528ZM50.1309 56.2555H50.62V56.337H49.6419V56.2555H50.1309ZM49.9679 55.1143C49.9679 54.7067 49.9679 54.3807 49.9679 53.9731H50.2125C50.2125 54.2991 50.2125 54.7067 50.2125 55.1143V55.2773C50.2125 55.6849 50.2125 56.0109 50.2125 56.4185H49.9679C49.9679 56.0924 49.9679 55.6849 49.9679 55.2773V55.1143Z" fill="url(#paint39_linear_241_11485)"/>
<path d="M51.1909 54.0546V53.9731H52.0876V54.0546H51.68H51.5985H51.1909ZM52.2506 55.5218L51.4355 53.9731H51.68L52.3321 55.3588H52.2506L52.9842 53.8916H53.1472L52.4136 55.4403L52.2506 55.5218ZM52.3321 56.2555H52.8212V56.337H51.843V56.2555H52.3321ZM52.1691 55.3588H52.3321C52.3321 55.9294 52.3321 56.0924 52.3321 56.4185H52.1691C52.1691 56.0924 52.1691 55.9294 52.1691 55.3588ZM52.9842 54.1361H52.5767V54.0546H53.3918V54.1361H52.9842Z" fill="url(#paint40_linear_241_11485)"/>
<path d="M53.5547 54.0546V53.9731H54.5329V54.0546H54.1253H54.0438H53.5547ZM54.0438 56.2555V56.4185H53.5547V56.337L54.0438 56.2555ZM53.9623 53.9731H54.2068C54.2068 54.3807 54.2068 54.7067 54.2068 55.1958V55.3588C54.2068 55.6849 54.2068 56.0109 54.2068 56.4185H53.9623C53.9623 56.0109 53.9623 55.6849 53.9623 55.2773V55.1143C53.9623 54.7067 53.9623 54.3807 53.9623 53.9731ZM55.348 55.7664V56.4185H54.1253V56.337H55.2665L55.185 56.4185L55.2665 55.7664H55.348Z" fill="url(#paint41_linear_241_11485)"/>
<path d="M55.5928 54.0546V53.9731H56.0819V54.1361L55.5928 54.0546ZM56.0819 56.2555V56.4185H55.5928V56.337L56.0819 56.2555ZM56.0003 55.1143C56.0003 54.7067 56.0003 54.3807 56.0003 53.9731H56.2449C56.2449 54.2991 56.2449 54.7067 56.2449 55.1143V55.1958C56.2449 55.6849 56.2449 56.0109 56.2449 56.4185H56.0003C56.0003 56.0924 56.0003 55.6849 56.0003 55.2773V55.1143ZM57.1415 53.9731L57.223 54.0546H56.0819V53.9731H57.3861V54.5437H57.223L57.1415 53.9731ZM56.897 55.2773H56.0819V55.1143H56.897V55.2773ZM57.4676 55.8479V56.4185H56.1634V56.337H57.3861L57.3046 56.4185L57.3861 55.8479H57.4676ZM56.8155 55.1143L56.897 54.7882H56.9785V55.6034H56.897L56.8155 55.1143Z" fill="url(#paint42_linear_241_11485)"/>
</g>
<defs>
<linearGradient id="paint0_linear_241_11485" x1="-21.7586" y1="20.1084" x2="92.985" y2="20.1084" gradientUnits="userSpaceOnUse">
<stop stop-color="#A06C4E"/>
<stop offset="0.2299" stop-color="#CF966D"/>
<stop offset="0.5004" stop-color="#F0CFA0"/>
<stop offset="0.6255" stop-color="#E0B488"/>
<stop offset="0.7842" stop-color="#CF966D"/>
<stop offset="1" stop-color="#A06C4E"/>
</linearGradient>
<linearGradient id="paint1_linear_241_11485" x1="-21.7587" y1="20.1082" x2="92.985" y2="20.1082" gradientUnits="userSpaceOnUse">
<stop stop-color="#A06C4E"/>
<stop offset="0.2299" stop-color="#CF966D"/>
<stop offset="0.5004" stop-color="#F0CFA0"/>
<stop offset="0.6255" stop-color="#E0B488"/>
<stop offset="0.7842" stop-color="#CF966D"/>
<stop offset="1" stop-color="#A06C4E"/>
</linearGradient>
<linearGradient id="paint2_linear_241_11485" x1="-21.7588" y1="20.1082" x2="92.9849" y2="20.1082" gradientUnits="userSpaceOnUse">
<stop stop-color="#A06C4E"/>
<stop offset="0.2299" stop-color="#CF966D"/>
<stop offset="0.5004" stop-color="#F0CFA0"/>
<stop offset="0.6255" stop-color="#E0B488"/>
<stop offset="0.7842" stop-color="#CF966D"/>
<stop offset="1" stop-color="#A06C4E"/>
</linearGradient>
<linearGradient id="paint3_linear_241_11485" x1="-21.7586" y1="9.40123" x2="92.9849" y2="9.40123" gradientUnits="userSpaceOnUse">
<stop stop-color="#A06C4E"/>
<stop offset="0.2299" stop-color="#CF966D"/>
<stop offset="0.5004" stop-color="#F0CFA0"/>
<stop offset="0.6255" stop-color="#E0B488"/>
<stop offset="0.7842" stop-color="#CF966D"/>
<stop offset="1" stop-color="#A06C4E"/>
</linearGradient>
<linearGradient id="paint4_linear_241_11485" x1="-21.7586" y1="30.8157" x2="92.9849" y2="30.8157" gradientUnits="userSpaceOnUse">
<stop stop-color="#A06C4E"/>
<stop offset="0.2299" stop-color="#CF966D"/>
<stop offset="0.5004" stop-color="#F0CFA0"/>
<stop offset="0.6255" stop-color="#E0B488"/>
<stop offset="0.7842" stop-color="#CF966D"/>
<stop offset="1" stop-color="#A06C4E"/>
</linearGradient>
<linearGradient id="paint5_linear_241_11485" x1="-21.7584" y1="47.3899" x2="92.9851" y2="47.3899" gradientUnits="userSpaceOnUse">
<stop stop-color="#A06C4E"/>
<stop offset="0.2299" stop-color="#CF966D"/>
<stop offset="0.5004" stop-color="#F0CFA0"/>
<stop offset="0.6255" stop-color="#E0B488"/>
<stop offset="0.7842" stop-color="#CF966D"/>
<stop offset="1" stop-color="#A06C4E"/>
</linearGradient>
<linearGradient id="paint6_linear_241_11485" x1="-21.7583" y1="47.7287" x2="92.9852" y2="47.7287" gradientUnits="userSpaceOnUse">
<stop stop-color="#A06C4E"/>
<stop offset="0.2299" stop-color="#CF966D"/>
<stop offset="0.5004" stop-color="#F0CFA0"/>
<stop offset="0.6255" stop-color="#E0B488"/>
<stop offset="0.7842" stop-color="#CF966D"/>
<stop offset="1" stop-color="#A06C4E"/>
</linearGradient>
<linearGradient id="paint7_linear_241_11485" x1="-21.7586" y1="48.2996" x2="92.9849" y2="48.2996" gradientUnits="userSpaceOnUse">
<stop stop-color="#A06C4E"/>
<stop offset="0.2299" stop-color="#CF966D"/>
<stop offset="0.5004" stop-color="#F0CFA0"/>
<stop offset="0.6255" stop-color="#E0B488"/>
<stop offset="0.7842" stop-color="#CF966D"/>
<stop offset="1" stop-color="#A06C4E"/>
</linearGradient>
<linearGradient id="paint8_linear_241_11485" x1="-21.7585" y1="47.065" x2="92.985" y2="47.065" gradientUnits="userSpaceOnUse">
<stop stop-color="#A06C4E"/>
<stop offset="0.2299" stop-color="#CF966D"/>
<stop offset="0.5004" stop-color="#F0CFA0"/>
<stop offset="0.6255" stop-color="#E0B488"/>
<stop offset="0.7842" stop-color="#CF966D"/>
<stop offset="1" stop-color="#A06C4E"/>
</linearGradient>
<linearGradient id="paint9_linear_241_11485" x1="-21.7584" y1="47.065" x2="92.9851" y2="47.065" gradientUnits="userSpaceOnUse">
<stop stop-color="#A06C4E"/>
<stop offset="0.2299" stop-color="#CF966D"/>
<stop offset="0.5004" stop-color="#F0CFA0"/>
<stop offset="0.6255" stop-color="#E0B488"/>
<stop offset="0.7842" stop-color="#CF966D"/>
<stop offset="1" stop-color="#A06C4E"/>
</linearGradient>
<linearGradient id="paint10_linear_241_11485" x1="-21.7584" y1="48.2996" x2="92.9851" y2="48.2996" gradientUnits="userSpaceOnUse">
<stop stop-color="#A06C4E"/>
<stop offset="0.2299" stop-color="#CF966D"/>
<stop offset="0.5004" stop-color="#F0CFA0"/>
<stop offset="0.6255" stop-color="#E0B488"/>
<stop offset="0.7842" stop-color="#CF966D"/>
<stop offset="1" stop-color="#A06C4E"/>
</linearGradient>
<linearGradient id="paint11_linear_241_11485" x1="-21.7583" y1="47.4364" x2="92.9851" y2="47.4364" gradientUnits="userSpaceOnUse">
<stop stop-color="#A06C4E"/>
<stop offset="0.2299" stop-color="#CF966D"/>
<stop offset="0.5004" stop-color="#F0CFA0"/>
<stop offset="0.6255" stop-color="#E0B488"/>
<stop offset="0.7842" stop-color="#CF966D"/>
<stop offset="1" stop-color="#A06C4E"/>
</linearGradient>
<linearGradient id="paint12_linear_241_11485" x1="-21.7582" y1="48.2996" x2="92.9852" y2="48.2996" gradientUnits="userSpaceOnUse">
<stop stop-color="#A06C4E"/>
<stop offset="0.2299" stop-color="#CF966D"/>
<stop offset="0.5004" stop-color="#F0CFA0"/>
<stop offset="0.6255" stop-color="#E0B488"/>
<stop offset="0.7842" stop-color="#CF966D"/>
<stop offset="1" stop-color="#A06C4E"/>
</linearGradient>
<linearGradient id="paint13_linear_241_11485" x1="-21.7584" y1="48.2996" x2="92.9851" y2="48.2996" gradientUnits="userSpaceOnUse">
<stop stop-color="#A06C4E"/>
<stop offset="0.2299" stop-color="#CF966D"/>
<stop offset="0.5004" stop-color="#F0CFA0"/>
<stop offset="0.6255" stop-color="#E0B488"/>
<stop offset="0.7842" stop-color="#CF966D"/>
<stop offset="1" stop-color="#A06C4E"/>
</linearGradient>
<linearGradient id="paint14_linear_241_11485" x1="-21.7587" y1="48.2393" x2="92.9851" y2="48.2393" gradientUnits="userSpaceOnUse">
<stop stop-color="#A06C4E"/>
<stop offset="0.2299" stop-color="#CF966D"/>
<stop offset="0.5004" stop-color="#F0CFA0"/>
<stop offset="0.6255" stop-color="#E0B488"/>
<stop offset="0.7842" stop-color="#CF966D"/>
<stop offset="1" stop-color="#A06C4E"/>
</linearGradient>
<linearGradient id="paint15_linear_241_11485" x1="-21.7584" y1="44.3449" x2="92.9851" y2="44.3449" gradientUnits="userSpaceOnUse">
<stop stop-color="#A06C4E"/>
<stop offset="0.2299" stop-color="#CF966D"/>
<stop offset="0.5004" stop-color="#F0CFA0"/>
<stop offset="0.6255" stop-color="#E0B488"/>
<stop offset="0.7842" stop-color="#CF966D"/>
<stop offset="1" stop-color="#A06C4E"/>
</linearGradient>
<linearGradient id="paint16_linear_241_11485" x1="-21.7586" y1="47.1253" x2="92.9851" y2="47.1253" gradientUnits="userSpaceOnUse">
<stop stop-color="#A06C4E"/>
<stop offset="0.2299" stop-color="#CF966D"/>
<stop offset="0.5004" stop-color="#F0CFA0"/>
<stop offset="0.6255" stop-color="#E0B488"/>
<stop offset="0.7842" stop-color="#CF966D"/>
<stop offset="1" stop-color="#A06C4E"/>
</linearGradient>
<linearGradient id="paint17_linear_241_11485" x1="-21.7587" y1="48.2996" x2="92.985" y2="48.2996" gradientUnits="userSpaceOnUse">
<stop stop-color="#A06C4E"/>
<stop offset="0.2299" stop-color="#CF966D"/>
<stop offset="0.5004" stop-color="#F0CFA0"/>
<stop offset="0.6255" stop-color="#E0B488"/>
<stop offset="0.7842" stop-color="#CF966D"/>
<stop offset="1" stop-color="#A06C4E"/>
</linearGradient>
<linearGradient id="paint18_linear_241_11485" x1="-21.7584" y1="48.2393" x2="92.9851" y2="48.2393" gradientUnits="userSpaceOnUse">
<stop stop-color="#A06C4E"/>
<stop offset="0.2299" stop-color="#CF966D"/>
<stop offset="0.5004" stop-color="#F0CFA0"/>
<stop offset="0.6255" stop-color="#E0B488"/>
<stop offset="0.7842" stop-color="#CF966D"/>
<stop offset="1" stop-color="#A06C4E"/>
</linearGradient>
<linearGradient id="paint19_linear_241_11485" x1="-21.7583" y1="48.2996" x2="92.9852" y2="48.2996" gradientUnits="userSpaceOnUse">
<stop stop-color="#A06C4E"/>
<stop offset="0.2299" stop-color="#CF966D"/>
<stop offset="0.5004" stop-color="#F0CFA0"/>
<stop offset="0.6255" stop-color="#E0B488"/>
<stop offset="0.7842" stop-color="#CF966D"/>
<stop offset="1" stop-color="#A06C4E"/>
</linearGradient>
<linearGradient id="paint20_linear_241_11485" x1="-21.7585" y1="48.2996" x2="92.9848" y2="48.2996" gradientUnits="userSpaceOnUse">
<stop stop-color="#A06C4E"/>
<stop offset="0.2299" stop-color="#CF966D"/>
<stop offset="0.5004" stop-color="#F0CFA0"/>
<stop offset="0.6255" stop-color="#E0B488"/>
<stop offset="0.7842" stop-color="#CF966D"/>
<stop offset="1" stop-color="#A06C4E"/>
</linearGradient>
<linearGradient id="paint21_linear_241_11485" x1="-21.7583" y1="55.2066" x2="92.9853" y2="55.2066" gradientUnits="userSpaceOnUse">
<stop stop-color="#A06C4E"/>
<stop offset="0.2299" stop-color="#CF966D"/>
<stop offset="0.5004" stop-color="#F0CFA0"/>
<stop offset="0.6255" stop-color="#E0B488"/>
<stop offset="0.7842" stop-color="#CF966D"/>
<stop offset="1" stop-color="#A06C4E"/>
</linearGradient>
<linearGradient id="paint22_linear_241_11485" x1="-21.758" y1="55.2066" x2="92.9854" y2="55.2066" gradientUnits="userSpaceOnUse">
<stop stop-color="#A06C4E"/>
<stop offset="0.2299" stop-color="#CF966D"/>
<stop offset="0.5004" stop-color="#F0CFA0"/>
<stop offset="0.6255" stop-color="#E0B488"/>
<stop offset="0.7842" stop-color="#CF966D"/>
<stop offset="1" stop-color="#A06C4E"/>
</linearGradient>
<linearGradient id="paint23_linear_241_11485" x1="-21.7581" y1="55.2191" x2="92.9854" y2="55.2191" gradientUnits="userSpaceOnUse">
<stop stop-color="#A06C4E"/>
<stop offset="0.2299" stop-color="#CF966D"/>
<stop offset="0.5004" stop-color="#F0CFA0"/>
<stop offset="0.6255" stop-color="#E0B488"/>
<stop offset="0.7842" stop-color="#CF966D"/>
<stop offset="1" stop-color="#A06C4E"/>
</linearGradient>
<linearGradient id="paint24_linear_241_11485" x1="-21.7582" y1="55.2066" x2="92.9853" y2="55.2066" gradientUnits="userSpaceOnUse">
<stop stop-color="#A06C4E"/>
<stop offset="0.2299" stop-color="#CF966D"/>
<stop offset="0.5004" stop-color="#F0CFA0"/>
<stop offset="0.6255" stop-color="#E0B488"/>
<stop offset="0.7842" stop-color="#CF966D"/>
<stop offset="1" stop-color="#A06C4E"/>
</linearGradient>
<linearGradient id="paint25_linear_241_11485" x1="-21.7581" y1="55.2066" x2="92.9854" y2="55.2066" gradientUnits="userSpaceOnUse">
<stop stop-color="#A06C4E"/>
<stop offset="0.2299" stop-color="#CF966D"/>
<stop offset="0.5004" stop-color="#F0CFA0"/>
<stop offset="0.6255" stop-color="#E0B488"/>
<stop offset="0.7842" stop-color="#CF966D"/>
<stop offset="1" stop-color="#A06C4E"/>
</linearGradient>
<linearGradient id="paint26_linear_241_11485" x1="-21.7584" y1="55.2314" x2="92.9851" y2="55.2314" gradientUnits="userSpaceOnUse">
<stop stop-color="#A06C4E"/>
<stop offset="0.2299" stop-color="#CF966D"/>
<stop offset="0.5004" stop-color="#F0CFA0"/>
<stop offset="0.6255" stop-color="#E0B488"/>
<stop offset="0.7842" stop-color="#CF966D"/>
<stop offset="1" stop-color="#A06C4E"/>
</linearGradient>
<linearGradient id="paint27_linear_241_11485" x1="-21.7584" y1="55.2066" x2="92.985" y2="55.2066" gradientUnits="userSpaceOnUse">
<stop stop-color="#A06C4E"/>
<stop offset="0.2299" stop-color="#CF966D"/>
<stop offset="0.5004" stop-color="#F0CFA0"/>
<stop offset="0.6255" stop-color="#E0B488"/>
<stop offset="0.7842" stop-color="#CF966D"/>
<stop offset="1" stop-color="#A06C4E"/>
</linearGradient>
<linearGradient id="paint28_linear_241_11485" x1="-21.7581" y1="55.2314" x2="92.9855" y2="55.2314" gradientUnits="userSpaceOnUse">
<stop stop-color="#A06C4E"/>
<stop offset="0.2299" stop-color="#CF966D"/>
<stop offset="0.5004" stop-color="#F0CFA0"/>
<stop offset="0.6255" stop-color="#E0B488"/>
<stop offset="0.7842" stop-color="#CF966D"/>
<stop offset="1" stop-color="#A06C4E"/>
</linearGradient>
<linearGradient id="paint29_linear_241_11485" x1="-21.7582" y1="55.2193" x2="92.9854" y2="55.2193" gradientUnits="userSpaceOnUse">
<stop stop-color="#A06C4E"/>
<stop offset="0.2299" stop-color="#CF966D"/>
<stop offset="0.5004" stop-color="#F0CFA0"/>
<stop offset="0.6255" stop-color="#E0B488"/>
<stop offset="0.7842" stop-color="#CF966D"/>
<stop offset="1" stop-color="#A06C4E"/>
</linearGradient>
<linearGradient id="paint30_linear_241_11485" x1="-21.7584" y1="55.2066" x2="92.9851" y2="55.2066" gradientUnits="userSpaceOnUse">
<stop stop-color="#A06C4E"/>
<stop offset="0.2299" stop-color="#CF966D"/>
<stop offset="0.5004" stop-color="#F0CFA0"/>
<stop offset="0.6255" stop-color="#E0B488"/>
<stop offset="0.7842" stop-color="#CF966D"/>
<stop offset="1" stop-color="#A06C4E"/>
</linearGradient>
<linearGradient id="paint31_linear_241_11485" x1="-21.7584" y1="55.325" x2="92.9854" y2="55.325" gradientUnits="userSpaceOnUse">
<stop stop-color="#A06C4E"/>
<stop offset="0.2299" stop-color="#CF966D"/>
<stop offset="0.5004" stop-color="#F0CFA0"/>
<stop offset="0.6255" stop-color="#E0B488"/>
<stop offset="0.7842" stop-color="#CF966D"/>
<stop offset="1" stop-color="#A06C4E"/>
</linearGradient>
<linearGradient id="paint32_linear_241_11485" x1="-21.758" y1="55.2066" x2="92.9855" y2="55.2066" gradientUnits="userSpaceOnUse">
<stop stop-color="#A06C4E"/>
<stop offset="0.2299" stop-color="#CF966D"/>
<stop offset="0.5004" stop-color="#F0CFA0"/>
<stop offset="0.6255" stop-color="#E0B488"/>
<stop offset="0.7842" stop-color="#CF966D"/>
<stop offset="1" stop-color="#A06C4E"/>
</linearGradient>
<linearGradient id="paint33_linear_241_11485" x1="-21.758" y1="55.2066" x2="92.9849" y2="55.2066" gradientUnits="userSpaceOnUse">
<stop stop-color="#A06C4E"/>
<stop offset="0.2299" stop-color="#CF966D"/>
<stop offset="0.5004" stop-color="#F0CFA0"/>
<stop offset="0.6255" stop-color="#E0B488"/>
<stop offset="0.7842" stop-color="#CF966D"/>
<stop offset="1" stop-color="#A06C4E"/>
</linearGradient>
<linearGradient id="paint34_linear_241_11485" x1="-21.7584" y1="55.2191" x2="92.9852" y2="55.2191" gradientUnits="userSpaceOnUse">
<stop stop-color="#A06C4E"/>
<stop offset="0.2299" stop-color="#CF966D"/>
<stop offset="0.5004" stop-color="#F0CFA0"/>
<stop offset="0.6255" stop-color="#E0B488"/>
<stop offset="0.7842" stop-color="#CF966D"/>
<stop offset="1" stop-color="#A06C4E"/>
</linearGradient>
<linearGradient id="paint35_linear_241_11485" x1="-21.7587" y1="55.2066" x2="92.9852" y2="55.2066" gradientUnits="userSpaceOnUse">
<stop stop-color="#A06C4E"/>
<stop offset="0.2299" stop-color="#CF966D"/>
<stop offset="0.5004" stop-color="#F0CFA0"/>
<stop offset="0.6255" stop-color="#E0B488"/>
<stop offset="0.7842" stop-color="#CF966D"/>
<stop offset="1" stop-color="#A06C4E"/>
</linearGradient>
<linearGradient id="paint36_linear_241_11485" x1="-21.7584" y1="55.2066" x2="92.9852" y2="55.2066" gradientUnits="userSpaceOnUse">
<stop stop-color="#A06C4E"/>
<stop offset="0.2299" stop-color="#CF966D"/>
<stop offset="0.5004" stop-color="#F0CFA0"/>
<stop offset="0.6255" stop-color="#E0B488"/>
<stop offset="0.7842" stop-color="#CF966D"/>
<stop offset="1" stop-color="#A06C4E"/>
</linearGradient>
<linearGradient id="paint37_linear_241_11485" x1="-21.7583" y1="55.2191" x2="92.9852" y2="55.2191" gradientUnits="userSpaceOnUse">
<stop stop-color="#A06C4E"/>
<stop offset="0.2299" stop-color="#CF966D"/>
<stop offset="0.5004" stop-color="#F0CFA0"/>
<stop offset="0.6255" stop-color="#E0B488"/>
<stop offset="0.7842" stop-color="#CF966D"/>
<stop offset="1" stop-color="#A06C4E"/>
</linearGradient>
<linearGradient id="paint38_linear_241_11485" x1="-21.7582" y1="55.2066" x2="92.9855" y2="55.2066" gradientUnits="userSpaceOnUse">
<stop stop-color="#A06C4E"/>
<stop offset="0.2299" stop-color="#CF966D"/>
<stop offset="0.5004" stop-color="#F0CFA0"/>
<stop offset="0.6255" stop-color="#E0B488"/>
<stop offset="0.7842" stop-color="#CF966D"/>
<stop offset="1" stop-color="#A06C4E"/>
</linearGradient>
<linearGradient id="paint39_linear_241_11485" x1="-21.7585" y1="55.2066" x2="92.9851" y2="55.2066" gradientUnits="userSpaceOnUse">
<stop stop-color="#A06C4E"/>
<stop offset="0.2299" stop-color="#CF966D"/>
<stop offset="0.5004" stop-color="#F0CFA0"/>
<stop offset="0.6255" stop-color="#E0B488"/>
<stop offset="0.7842" stop-color="#CF966D"/>
<stop offset="1" stop-color="#A06C4E"/>
</linearGradient>
<linearGradient id="paint40_linear_241_11485" x1="-21.7582" y1="55.2066" x2="92.9854" y2="55.2066" gradientUnits="userSpaceOnUse">
<stop stop-color="#A06C4E"/>
<stop offset="0.2299" stop-color="#CF966D"/>
<stop offset="0.5004" stop-color="#F0CFA0"/>
<stop offset="0.6255" stop-color="#E0B488"/>
<stop offset="0.7842" stop-color="#CF966D"/>
<stop offset="1" stop-color="#A06C4E"/>
</linearGradient>
<linearGradient id="paint41_linear_241_11485" x1="-21.7585" y1="55.2066" x2="92.9853" y2="55.2066" gradientUnits="userSpaceOnUse">
<stop stop-color="#A06C4E"/>
<stop offset="0.2299" stop-color="#CF966D"/>
<stop offset="0.5004" stop-color="#F0CFA0"/>
<stop offset="0.6255" stop-color="#E0B488"/>
<stop offset="0.7842" stop-color="#CF966D"/>
<stop offset="1" stop-color="#A06C4E"/>
</linearGradient>
<linearGradient id="paint42_linear_241_11485" x1="-21.758" y1="55.2066" x2="92.9854" y2="55.2066" gradientUnits="userSpaceOnUse">
<stop stop-color="#A06C4E"/>
<stop offset="0.2299" stop-color="#CF966D"/>
<stop offset="0.5004" stop-color="#F0CFA0"/>
<stop offset="0.6255" stop-color="#E0B488"/>
<stop offset="0.7842" stop-color="#CF966D"/>
<stop offset="1" stop-color="#A06C4E"/>
</linearGradient>
<clipPath id="clip0_241_11485">
<rect width="66.0262" height="56" fill="white" transform="translate(0 0.5)"/>
</clipPath>
</defs>
</svg>
