<svg width="27" height="24" viewBox="0 0 27 24" fill="none" xmlns="http://www.w3.org/2000/svg">
<path opacity="0.5" d="M13.3248 10.6667C12.8046 10.6667 12.2844 10.5224 11.8509 10.1978L0.233315 1.10991C-0.0701296 0.857464 -0.0701296 0.460769 0.189966 0.208326C0.49341 -0.0441166 0.970252 -0.0441161 1.2737 0.172263L12.8913 9.2602C13.108 9.44052 13.4982 9.44052 13.7583 9.2602L25.3759 0.172263C25.6793 -0.0801793 26.1562 -0.0441166 26.4596 0.208326C26.763 0.460769 26.7197 0.857464 26.4163 1.10991L14.7987 10.1618C14.3652 10.4864 13.845 10.6667 13.3248 10.6667Z" fill="url(#paint0_linear_268_5055)"/>
<path d="M13.3248 17.3334C12.8046 17.3334 12.2844 17.1891 11.8509 16.8645L0.233315 7.77659C-0.0701296 7.52415 -0.0701296 7.12746 0.189966 6.87501C0.49341 6.62257 0.970252 6.62257 1.2737 6.83895L12.8913 15.9269C13.108 16.1072 13.4982 16.1072 13.7583 15.9269L25.3759 6.83895C25.6793 6.58651 26.1562 6.62257 26.4596 6.87501C26.763 7.12746 26.7197 7.52415 26.4163 7.77659L14.7987 16.8285C14.3652 17.153 13.845 17.3334 13.3248 17.3334Z" fill="url(#paint1_linear_268_5055)"/>
<path opacity="0.5" d="M13.3248 24C12.8046 24 12.2844 23.8557 11.8509 23.5312L0.233315 14.4432C-0.0701296 14.1908 -0.0701296 13.7941 0.189966 13.5416C0.49341 13.2892 0.970252 13.2892 1.2737 13.5056L12.8913 22.5935C13.108 22.7738 13.4982 22.7738 13.7583 22.5935L25.3759 13.5056C25.6793 13.2531 26.1562 13.2892 26.4596 13.5416C26.763 13.7941 26.7197 14.1908 26.4163 14.4432L14.7987 23.4951C14.3652 23.8197 13.845 24 13.3248 24Z" fill="url(#paint2_linear_268_5055)"/>
<defs>
<linearGradient id="paint0_linear_268_5055" x1="-7.03411" y1="5.34171" x2="34.7806" y2="5.34171" gradientUnits="userSpaceOnUse">
<stop stop-color="#A06C4E"/>
<stop offset="0.2299" stop-color="#CF966D"/>
<stop offset="0.5004" stop-color="#F0CFA0"/>
<stop offset="0.6255" stop-color="#E0B488"/>
<stop offset="0.7842" stop-color="#CF966D"/>
<stop offset="1" stop-color="#A06C4E"/>
</linearGradient>
<linearGradient id="paint1_linear_268_5055" x1="-7.03411" y1="12.0084" x2="34.7806" y2="12.0084" gradientUnits="userSpaceOnUse">
<stop stop-color="#A06C4E"/>
<stop offset="0.2299" stop-color="#CF966D"/>
<stop offset="0.5004" stop-color="#F0CFA0"/>
<stop offset="0.6255" stop-color="#E0B488"/>
<stop offset="0.7842" stop-color="#CF966D"/>
<stop offset="1" stop-color="#A06C4E"/>
</linearGradient>
<linearGradient id="paint2_linear_268_5055" x1="-7.03411" y1="18.675" x2="34.7806" y2="18.675" gradientUnits="userSpaceOnUse">
<stop stop-color="#A06C4E"/>
<stop offset="0.2299" stop-color="#CF966D"/>
<stop offset="0.5004" stop-color="#F0CFA0"/>
<stop offset="0.6255" stop-color="#E0B488"/>
<stop offset="0.7842" stop-color="#CF966D"/>
<stop offset="1" stop-color="#A06C4E"/>
</linearGradient>
</defs>
</svg>
